<?xml version="1.0" encoding="UTF-8"?>
<!-- Generator: visioncortex VTracer 0.6.5 -->
<svg version="1.1" xmlns="http://www.w3.org/2000/svg" width="2048" height="2048" viewBox="0 0 2048 2048">
<path d="M0 0 C1.68 -0 3.36 -0.01 5.04 -0.02 C9.63 -0.03 14.22 -0.02 18.81 -0 C23.82 0.01 28.82 -0 33.82 -0.01 C42.59 -0.02 51.35 -0.02 60.11 -0.01 C73.14 0.01 86.17 0.01 99.2 0 C121.13 -0.01 143.05 -0 164.97 0.01 C186.68 0.03 208.39 0.04 230.1 0.04 C231.47 0.04 232.83 0.04 234.2 0.04 C239.68 0.04 245.16 0.04 250.64 0.04 C265.97 0.04 281.29 0.04 296.62 0.04 C297.31 0.04 298.01 0.04 298.73 0.04 C320.96 0.04 343.19 0.05 365.42 0.07 C366.14 0.07 366.86 0.07 367.6 0.07 C379.31 0.07 391.01 0.08 402.72 0.09 C449.15 0.12 495.58 0.13 542.02 0.13 C543.49 0.13 544.95 0.13 546.42 0.13 C549.35 0.13 552.29 0.13 555.22 0.13 C561.8 0.13 568.37 0.13 574.95 0.13 C576.4 0.13 577.86 0.13 579.32 0.13 C618.22 0.13 657.13 0.13 696.03 0.15 C696.71 0.15 697.39 0.15 698.09 0.15 C710.46 0.15 710.46 0.15 716.53 0.15 C731.46 0.16 746.4 0.16 761.34 0.16 C762.01 0.16 762.68 0.16 763.38 0.16 C766.09 0.16 768.8 0.16 771.51 0.16 C796.68 0.16 821.84 0.17 847 0.19 C859.95 0.2 872.91 0.21 885.86 0.2 C894.51 0.2 903.15 0.21 911.8 0.22 C916.73 0.23 921.66 0.23 926.59 0.23 C931.07 0.22 935.56 0.22 940.04 0.24 C941.66 0.24 943.27 0.24 944.88 0.23 C967.41 0.18 986.97 6.32 1003.61 22.18 C1003.99 22.56 1003.99 22.56 1005.94 24.5 C1006.32 24.86 1006.32 24.86 1008.24 26.69 C1024.82 43.59 1029.1 65.8 1029.07 88.67 C1029.08 90.01 1029.08 91.35 1029.08 92.69 C1029.09 96.38 1029.09 100.06 1029.09 103.75 C1029.09 107.75 1029.09 111.76 1029.1 115.77 C1029.11 123.72 1029.11 131.67 1029.11 139.62 C1029.12 149.15 1029.13 158.67 1029.13 168.19 C1029.15 191.21 1029.17 214.22 1029.17 237.23 C1029.18 248.12 1029.18 259.01 1029.19 269.9 C1029.21 307.16 1029.22 344.43 1029.23 381.7 C1029.23 384.04 1029.23 386.38 1029.23 388.72 C1029.23 389.3 1029.23 389.3 1029.23 392.23 C1029.23 398.11 1029.23 403.99 1029.23 409.87 C1029.24 411.03 1029.24 412.2 1029.24 413.4 C1029.24 451.23 1029.27 489.05 1029.3 526.88 C1029.33 566.87 1029.35 606.86 1029.36 646.85 C1029.36 651.24 1029.36 655.63 1029.36 660.02 C1029.36 661.1 1029.36 662.18 1029.36 663.3 C1029.36 680.69 1029.38 698.09 1029.4 715.49 C1029.42 732.97 1029.42 750.45 1029.41 767.94 C1029.41 778.32 1029.41 788.71 1029.44 799.09 C1029.45 806.04 1029.45 812.98 1029.44 819.92 C1029.43 823.87 1029.43 827.82 1029.44 831.77 C1029.46 835.38 1029.46 838.98 1029.44 842.58 C1029.43 844.47 1029.45 846.37 1029.47 848.26 C1029.33 864.63 1023.79 880.38 1012.34 892.25 C1004.05 900.02 995.72 903.43 984.94 906.5 C984.36 906.68 983.77 906.86 983.17 907.05 C980.07 907.67 977.09 907.63 973.92 907.63 C973.21 907.63 972.5 907.63 971.76 907.63 C969.36 907.64 966.96 907.64 964.56 907.63 C962.82 907.64 961.08 907.64 959.34 907.64 C954.53 907.65 949.72 907.65 944.91 907.65 C939.68 907.65 934.46 907.66 929.24 907.66 C918.86 907.68 908.49 907.68 898.12 907.69 C885.7 907.69 873.28 907.7 860.86 907.71 C830.83 907.74 800.81 907.75 770.78 907.77 C760.84 907.77 750.9 907.77 740.96 907.78 C688.87 907.8 636.78 907.83 584.7 907.84 C580.89 907.84 577.07 907.84 573.26 907.84 C572.5 907.84 571.75 907.84 570.97 907.84 C563.3 907.84 555.64 907.85 547.98 907.85 C546.44 907.85 544.9 907.85 543.37 907.85 C494.02 907.86 444.68 907.89 395.34 907.93 C359.89 907.96 324.44 907.99 288.99 908 C288.63 908 288.63 908 286.78 908 C270.77 908 254.76 908.01 238.76 908.01 C232.32 908.01 225.87 908.01 219.43 908.01 C218.73 908.01 218.02 908.01 217.3 908.01 C194.6 908.01 171.89 908.03 149.19 908.06 C125.69 908.09 102.18 908.1 78.67 908.08 C65.12 908.08 51.57 908.09 38.02 908.11 C28.96 908.13 19.91 908.13 10.86 908.12 C5.7 908.11 0.54 908.11 -4.62 908.13 C-9.31 908.15 -14.01 908.14 -18.71 908.12 C-20.39 908.12 -22.08 908.12 -23.76 908.14 C-40.19 908.26 -55.95 904.61 -68.56 893.25 C-81.49 879.64 -86.71 864.04 -86.56 845.48 C-86.57 844.12 -86.57 842.76 -86.58 841.4 C-86.6 837.69 -86.59 833.99 -86.57 830.28 C-86.56 826.23 -86.58 822.19 -86.59 818.14 C-86.6 811.06 -86.6 803.98 -86.59 796.9 C-86.58 786.38 -86.58 775.85 -86.6 765.32 C-86.62 746.51 -86.62 727.71 -86.6 708.9 C-86.59 692.45 -86.59 675.99 -86.6 659.53 C-86.6 658.44 -86.6 657.35 -86.6 656.22 C-86.6 651.79 -86.6 647.35 -86.6 642.92 C-86.61 601.34 -86.6 559.76 -86.58 518.18 C-86.56 481.25 -86.56 444.32 -86.58 407.38 C-86.6 365.88 -86.61 324.38 -86.6 282.88 C-86.6 278.45 -86.6 274.02 -86.6 269.6 C-86.6 268.51 -86.59 267.42 -86.59 266.3 C-86.59 249.85 -86.6 233.41 -86.61 216.96 C-86.62 198.26 -86.61 179.56 -86.59 160.85 C-86.58 150.39 -86.58 139.93 -86.59 129.46 C-86.6 122.47 -86.6 115.47 -86.58 108.48 C-86.57 104.5 -86.57 100.52 -86.58 96.54 C-86.6 92.91 -86.59 89.28 -86.57 85.64 C-86.56 83.74 -86.58 81.84 -86.59 79.93 C-86.49 67.93 -83.61 56.49 -78.31 45.69 C-77.97 44.97 -77.62 44.26 -77.27 43.53 C-74.26 37.51 -70.65 32.42 -66.06 27.5 C-65.4 26.74 -64.73 25.99 -64.05 25.21 C-47.29 7.16 -24.01 -0.16 0 0 Z " fill="#212933" transform="translate(553.0603380203247,393.5022220611572)"/>
<path d="M0 0 C1.7 -0 3.4 -0.01 5.1 -0.01 C9.78 -0.02 14.45 -0.01 19.12 -0.01 C24.21 -0 29.29 -0.01 34.38 -0.02 C43.29 -0.03 52.2 -0.03 61.12 -0.02 C74.37 -0.02 87.62 -0.03 100.88 -0.03 C125.24 -0.05 149.6 -0.05 173.96 -0.05 C177.41 -0.05 180.86 -0.05 184.31 -0.05 C184.99 -0.05 185.68 -0.05 186.39 -0.05 C201.58 -0.05 216.78 -0.05 231.97 -0.05 C235.44 -0.05 238.91 -0.05 242.38 -0.05 C243.77 -0.05 245.17 -0.05 246.56 -0.05 C246.91 -0.05 246.91 -0.05 248.65 -0.06 C250.05 -0.06 251.45 -0.06 252.84 -0.06 C292.46 -0.06 332.09 -0.07 371.71 -0.07 C372.08 -0.07 372.08 -0.07 373.94 -0.06 C382.12 -0.06 390.3 -0.06 398.48 -0.06 C399.22 -0.06 399.96 -0.06 400.72 -0.06 C406.85 -0.06 406.85 -0.06 409.68 -0.06 C456.92 -0.06 504.15 -0.06 551.39 -0.08 C563.29 -0.09 575.2 -0.09 587.1 -0.1 C587.83 -0.1 588.56 -0.1 589.32 -0.1 C611.91 -0.1 634.5 -0.11 657.09 -0.11 C657.8 -0.11 658.51 -0.11 659.24 -0.11 C674.81 -0.11 690.39 -0.11 705.96 -0.11 C711.53 -0.11 717.11 -0.11 722.68 -0.11 C724.07 -0.11 725.45 -0.11 726.84 -0.11 C748.92 -0.11 770.99 -0.11 793.07 -0.12 C815.93 -0.14 838.79 -0.14 861.65 -0.13 C874.83 -0.12 888 -0.12 901.18 -0.13 C909.98 -0.14 918.79 -0.14 927.59 -0.13 C932.6 -0.12 937.62 -0.12 942.63 -0.13 C947.2 -0.14 951.77 -0.14 956.34 -0.12 C957.98 -0.12 959.61 -0.12 961.25 -0.13 C974.97 -0.19 988.18 1.38 1001.24 5.88 C1001.98 6.13 1002.72 6.38 1003.48 6.64 C1017.23 11.55 1029.19 18.87 1040.31 28.25 C1040.78 28.64 1040.78 28.64 1043.17 30.62 C1072.05 55.55 1080.73 90.64 1085.64 126.92 C1086.09 130.01 1086.65 133.06 1087.27 136.12 C1090.89 154.8 1090.88 173.21 1090.81 192.15 C1090.8 196.98 1090.81 201.81 1090.82 206.64 C1090.84 215.09 1090.84 223.53 1090.82 231.97 C1090.81 244.53 1090.81 257.09 1090.82 269.64 C1090.84 292.08 1090.83 314.51 1090.82 336.95 C1090.81 356.59 1090.8 376.23 1090.8 395.87 C1090.8 397.17 1090.8 398.48 1090.8 399.82 C1090.8 405.12 1090.8 410.42 1090.81 415.71 C1090.81 430.52 1090.81 445.33 1090.81 460.13 C1090.81 460.81 1090.81 461.48 1090.81 462.18 C1090.81 483.64 1090.8 505.11 1090.79 526.58 C1090.79 527.27 1090.79 527.97 1090.79 528.68 C1090.78 539.98 1090.78 551.28 1090.77 562.57 C1090.75 607.34 1090.74 652.12 1090.75 696.89 C1090.75 699.72 1090.75 702.54 1090.75 705.37 C1090.75 706.07 1090.75 706.77 1090.75 707.49 C1090.76 715.24 1090.76 722.98 1090.76 730.73 C1090.76 731.08 1090.76 731.08 1090.76 732.83 C1090.77 770.41 1090.76 807.99 1090.75 845.57 C1090.75 849.54 1090.75 853.51 1090.75 857.48 C1090.75 860.12 1090.75 862.75 1090.75 865.38 C1090.74 885 1090.74 904.61 1090.75 924.23 C1090.75 946.55 1090.74 968.88 1090.72 991.2 C1090.71 1003.67 1090.71 1016.15 1090.72 1028.62 C1090.73 1036.97 1090.72 1045.33 1090.7 1053.69 C1090.7 1058.43 1090.69 1063.18 1090.7 1067.92 C1090.75 1089.75 1089.88 1111.2 1087.63 1132.91 C1086.96 1139.85 1086.64 1146.8 1086.31 1153.75 C1084.15 1193.95 1078.33 1232.32 1049.71 1262.76 C1048.42 1264.14 1047.15 1265.54 1045.89 1266.95 C1034.9 1278.69 1020.87 1286.73 1006.31 1293.25 C1005.68 1293.54 1005.05 1293.82 1004.4 1294.11 C994.95 1298.29 985.38 1301.04 975.31 1303.25 C974.96 1303.34 974.96 1303.34 973.22 1303.78 C968.89 1304.48 964.58 1304.49 960.19 1304.57 C959.22 1304.59 958.25 1304.61 957.25 1304.63 C954.17 1304.7 951.08 1304.76 947.99 1304.82 C945.9 1304.86 943.8 1304.9 941.7 1304.95 C936.57 1305.05 931.44 1305.16 926.31 1305.25 C928.37 1307.95 930.43 1310.65 932.49 1313.34 C933.07 1314.1 933.65 1314.86 934.24 1315.63 C937.61 1320.04 940.98 1324.43 944.37 1328.82 C945.58 1330.4 946.79 1331.98 948 1333.56 C949.43 1335.42 950.89 1337.27 952.35 1339.12 C966.39 1357.17 971.79 1372.93 971.7 1395.75 C971.71 1397.64 971.71 1399.53 971.71 1401.41 C971.72 1405.35 971.71 1409.29 971.7 1413.22 C971.68 1418.24 971.69 1423.26 971.71 1428.28 C971.72 1432.17 971.72 1436.06 971.71 1439.95 C971.71 1441.8 971.71 1443.65 971.72 1445.5 C971.76 1461.16 970.34 1476.5 959.15 1488.6 C947.34 1499.2 934.12 1501.86 918.73 1501.76 C917.19 1501.77 915.64 1501.77 914.09 1501.78 C909.88 1501.8 905.66 1501.79 901.44 1501.78 C896.88 1501.77 892.32 1501.78 887.76 1501.79 C878.84 1501.81 869.92 1501.81 861 1501.8 C853.74 1501.79 846.49 1501.79 839.24 1501.79 C838.72 1501.79 838.72 1501.79 836.11 1501.79 C834.01 1501.79 831.91 1501.79 829.81 1501.8 C810.14 1501.81 790.47 1501.79 770.8 1501.77 C753.93 1501.75 737.06 1501.76 720.19 1501.78 C700.59 1501.8 680.98 1501.81 661.38 1501.79 C659.29 1501.79 657.19 1501.79 655.1 1501.79 C654.07 1501.79 653.05 1501.79 651.99 1501.79 C644.74 1501.78 637.5 1501.79 630.26 1501.8 C621.43 1501.81 612.61 1501.81 603.78 1501.79 C599.28 1501.78 594.78 1501.77 590.28 1501.79 C586.15 1501.8 582.03 1501.79 577.9 1501.77 C576.41 1501.76 574.93 1501.77 573.44 1501.78 C561 1501.85 552.18 1499.69 542.61 1491.56 C532.22 1481.16 526.08 1464.61 520.31 1451.25 C520.13 1450.88 520.13 1450.88 519.26 1448.98 C518.18 1445.9 518.06 1443.52 518.07 1440.26 C518.06 1439.06 518.06 1437.86 518.06 1436.62 C518.06 1435.31 518.07 1434 518.08 1432.65 C518.08 1431.25 518.08 1429.85 518.08 1428.45 C518.08 1424.66 518.09 1420.87 518.1 1417.07 C518.12 1413.11 518.12 1409.14 518.12 1405.17 C518.13 1397.67 518.14 1390.16 518.16 1382.65 C518.19 1372.5 518.2 1362.35 518.21 1352.21 C518.23 1336.22 518.27 1320.24 518.31 1304.25 C493.56 1304.25 468.81 1304.25 443.31 1304.25 C443.38 1314.19 443.45 1324.12 443.52 1334.35 C443.55 1340.66 443.58 1346.98 443.6 1353.29 C443.63 1363.29 443.68 1373.3 443.76 1383.31 C443.82 1390.6 443.86 1397.89 443.87 1405.18 C443.88 1409.03 443.9 1412.89 443.94 1416.74 C444.27 1447.05 444.27 1447.05 437.31 1459.25 C436.26 1461.44 435.22 1463.64 434.19 1465.84 C433.13 1467.92 432.07 1469.99 430.99 1472.07 C430.48 1473.11 429.96 1474.15 429.43 1475.22 C422.98 1487.7 414.9 1496.72 401.31 1501.25 C395.98 1502.17 390.8 1502.19 385.42 1502.12 C383.87 1502.13 382.31 1502.14 380.76 1502.15 C376.52 1502.17 372.29 1502.15 368.05 1502.13 C363.47 1502.1 358.89 1502.12 354.31 1502.14 C345.35 1502.15 336.39 1502.14 327.43 1502.11 C316.99 1502.07 306.55 1502.07 296.11 1502.08 C277.48 1502.08 258.84 1502.05 240.21 1502 C222.14 1501.96 204.08 1501.93 186.01 1501.94 C163.17 1501.95 140.33 1501.94 117.49 1501.9 C110.22 1501.89 102.95 1501.89 95.67 1501.89 C86.81 1501.89 77.95 1501.88 69.08 1501.85 C64.56 1501.83 60.04 1501.82 55.52 1501.83 C51.38 1501.83 47.24 1501.82 43.1 1501.79 C41.6 1501.79 40.11 1501.79 38.62 1501.79 C25.69 1501.85 15.6 1499.3 5.31 1491.25 C4.69 1490.78 4.07 1490.3 3.44 1489.81 C-4.57 1482.74 -9.89 1470.79 -10.88 1460.25 C-10.96 1458.15 -10.99 1456.06 -10.98 1453.97 C-10.99 1453.18 -11 1452.39 -11 1451.58 C-11.02 1449 -11.03 1446.42 -11.03 1443.84 C-11.04 1442.03 -11.04 1440.22 -11.05 1438.4 C-11.06 1434.61 -11.07 1430.81 -11.06 1427.01 C-11.06 1422.19 -11.09 1417.36 -11.13 1412.54 C-11.15 1408.79 -11.15 1405.04 -11.15 1401.3 C-11.15 1399.52 -11.16 1397.74 -11.18 1395.97 C-11.36 1373.69 -5.33 1356.5 8.99 1339.32 C13.29 1334.14 17.21 1328.67 21.15 1323.21 C25.64 1317.04 30.42 1311.13 35.31 1305.25 C34.07 1305.23 32.83 1305.21 31.55 1305.19 C26.9 1305.12 22.25 1305.03 17.59 1304.94 C15.59 1304.9 13.59 1304.86 11.58 1304.83 C-2.12 1304.61 -15.17 1304.18 -28.26 1299.69 C-29.01 1299.44 -29.76 1299.18 -30.54 1298.91 C-52.74 1291.08 -74.73 1278.79 -89.69 1260.25 C-90.32 1259.54 -90.94 1258.83 -91.58 1258.09 C-96.44 1252.37 -100.11 1246.3 -103.64 1239.7 C-106.5 1234.36 -108.73 1231.56 -114.1 1228.83 C-114.55 1228.6 -114.55 1228.6 -116.81 1227.44 C-117.78 1226.94 -118.76 1226.45 -119.76 1225.94 C-121.85 1224.86 -123.95 1223.78 -126.05 1222.7 C-127.14 1222.13 -128.23 1221.57 -129.36 1220.99 C-146.34 1212.17 -163.01 1202.89 -179.47 1193.15 C-182.95 1191.1 -186.44 1189.08 -189.94 1187.05 C-203.34 1179.28 -216.55 1171.32 -229.46 1162.73 C-232.41 1160.78 -235.38 1158.87 -238.35 1156.95 C-253.11 1147.45 -267.53 1137.61 -281.69 1127.25 C-283 1126.3 -284.3 1125.35 -285.61 1124.4 C-288.68 1122.16 -291.75 1119.91 -294.81 1117.64 C-296.1 1116.69 -297.39 1115.74 -298.69 1114.79 C-306.95 1108.71 -314.98 1102.46 -322.75 1095.77 C-325.34 1093.56 -327.96 1091.42 -330.63 1089.32 C-340.81 1081.24 -350.51 1072.62 -360.03 1063.78 C-361.26 1062.65 -362.5 1061.55 -363.74 1060.45 C-371.07 1053.98 -377.98 1047.12 -384.88 1040.2 C-386.88 1038.19 -388.89 1036.19 -390.9 1034.18 C-397.05 1028.04 -403.09 1021.9 -408.69 1015.25 C-410.15 1013.65 -411.61 1012.04 -413.07 1010.44 C-417.8 1005.19 -422.3 999.78 -426.69 994.25 C-426.95 993.93 -426.95 993.93 -428.26 992.28 C-448.66 966.55 -466.5 939.63 -480.83 910.04 C-481.61 908.44 -482.4 906.84 -483.21 905.25 C-498.94 872.92 -506.88 838.22 -506.88 802.41 C-506.88 799.66 -506.9 796.9 -506.92 794.14 C-506.97 779.15 -505.78 764.67 -502.51 750 C-502.4 749.52 -502.4 749.52 -501.86 747.09 C-494.74 716.3 -481.15 689.5 -459.69 666.25 C-459.31 665.84 -459.31 665.84 -457.4 663.74 C-440.69 646.28 -419.22 635.83 -396.54 628.39 C-395.87 628.17 -395.2 627.95 -394.51 627.73 C-392.69 627.25 -392.69 627.25 -389.69 627.25 C-389.67 626.6 -389.64 625.95 -389.62 625.28 C-389.06 616.64 -386.07 612.2 -379.67 606.55 C-375.19 603.61 -370.67 603.01 -365.41 603.03 C-364.8 603.03 -364.8 603.03 -361.71 603.03 C-361.06 603.03 -361.06 603.03 -357.76 603.06 C-356.41 603.06 -355.05 603.07 -353.69 603.07 C-350.13 603.08 -346.57 603.09 -343 603.12 C-339.36 603.14 -335.72 603.15 -332.08 603.16 C-324.95 603.18 -317.82 603.21 -310.69 603.25 C-310.7 602.95 -310.7 602.95 -310.73 601.42 C-310.77 598.65 -310.8 595.89 -310.82 593.12 C-310.84 592.17 -310.86 591.22 -310.88 590.24 C-310.93 583.18 -310.2 577.91 -305.69 572.25 C-305.17 571.59 -304.65 570.93 -304.12 570.25 C-299.23 564.79 -293.62 561.67 -286.29 560.9 C-282.12 560.76 -277.97 560.76 -273.8 560.8 C-272.2 560.8 -270.61 560.8 -269.01 560.8 C-264.7 560.8 -260.38 560.82 -256.07 560.85 C-251.55 560.87 -247.04 560.88 -242.52 560.88 C-233.98 560.89 -225.44 560.93 -216.89 560.97 C-207.16 561.01 -197.44 561.03 -187.71 561.05 C-167.7 561.09 -147.7 561.17 -127.69 561.25 C-127.7 560.4 -127.7 559.54 -127.7 558.66 C-127.84 507.86 -127.94 457.05 -128 406.24 C-128.01 400.13 -128.02 394.01 -128.02 387.9 C-128.02 386.68 -128.03 385.46 -128.03 384.21 C-128.05 364.56 -128.1 344.91 -128.16 325.26 C-128.21 305.06 -128.25 284.86 -128.26 264.66 C-128.27 252.22 -128.29 239.79 -128.34 227.35 C-128.37 218.79 -128.38 210.23 -128.37 201.67 C-128.37 196.75 -128.38 191.83 -128.41 186.91 C-128.55 164.57 -127.22 143.73 -122.45 121.86 C-121.41 116.91 -120.55 111.94 -119.7 106.95 C-113.93 73.41 -98.53 42.34 -70.49 21.92 C-57.17 12.81 -42.33 6.22 -26.69 2.25 C-26.04 2.08 -25.39 1.91 -24.71 1.73 C-16.53 -0.19 -8.35 -0.02 0 0 Z M-30.94 101 C-31.61 101.35 -32.27 101.69 -32.95 102.05 C-53.02 112.74 -66.72 129.08 -73.83 150.7 C-76.28 159.4 -77.27 167.31 -77.2 176.4 C-77.2 177.76 -77.21 179.12 -77.21 180.48 C-77.23 184.19 -77.22 187.9 -77.21 191.6 C-77.2 195.65 -77.21 199.69 -77.22 203.74 C-77.24 210.82 -77.23 217.9 -77.22 224.98 C-77.21 235.51 -77.22 246.04 -77.23 256.57 C-77.25 275.37 -77.25 294.18 -77.24 312.98 C-77.23 329.44 -77.22 345.9 -77.23 362.36 C-77.23 363.45 -77.23 364.54 -77.23 365.67 C-77.23 370.1 -77.23 374.53 -77.23 378.97 C-77.25 420.54 -77.24 462.12 -77.21 503.7 C-77.19 540.63 -77.2 577.57 -77.22 614.5 C-77.24 656 -77.25 697.51 -77.23 739.01 C-77.23 743.44 -77.23 747.86 -77.23 752.29 C-77.23 753.38 -77.23 754.47 -77.23 755.59 C-77.22 772.03 -77.23 788.48 -77.24 804.93 C-77.25 823.63 -77.25 842.33 -77.23 861.03 C-77.21 871.5 -77.21 881.96 -77.23 892.42 C-77.24 899.42 -77.23 906.41 -77.21 913.4 C-77.2 917.38 -77.2 921.36 -77.22 925.35 C-77.23 928.98 -77.22 932.61 -77.2 936.24 C-77.2 938.14 -77.21 940.05 -77.23 941.95 C-77.08 958.88 -70.98 973.63 -59.33 985.93 C-45.75 997.89 -29.75 1000.86 -12.21 1000.76 C-10.46 1000.77 -8.71 1000.77 -6.96 1000.78 C-2.17 1000.8 2.63 1000.79 7.43 1000.77 C12.65 1000.77 17.87 1000.78 23.1 1000.79 C32.25 1000.81 41.4 1000.81 50.55 1000.8 C64.16 1000.79 77.77 1000.8 91.37 1000.81 C116.38 1000.84 141.39 1000.84 166.41 1000.83 C169.95 1000.83 173.49 1000.83 177.03 1000.82 C177.74 1000.82 178.44 1000.82 179.16 1000.82 C194.77 1000.82 210.37 1000.82 225.97 1000.83 C228.11 1000.83 230.24 1000.83 232.38 1000.83 C238.1 1000.83 243.83 1000.83 249.56 1000.84 C265.57 1000.84 281.57 1000.84 297.58 1000.85 C298.31 1000.85 299.04 1000.85 299.79 1000.85 C323.02 1000.85 346.24 1000.85 369.47 1000.84 C370.22 1000.84 370.97 1000.84 371.75 1000.84 C380.15 1000.84 388.55 1000.84 396.95 1000.83 C397.71 1000.83 398.46 1000.83 399.25 1000.83 C402.31 1000.83 405.38 1000.83 408.44 1000.83 C456.95 1000.81 505.45 1000.82 553.95 1000.85 C566.17 1000.86 578.39 1000.87 590.61 1000.87 C590.99 1000.87 590.99 1000.87 592.89 1000.87 C616.09 1000.89 639.29 1000.89 662.48 1000.89 C662.85 1000.89 662.85 1000.89 664.69 1000.89 C680.68 1000.89 696.68 1000.89 712.67 1000.89 C718.39 1000.89 724.11 1000.89 729.84 1000.88 C731.26 1000.88 732.68 1000.88 734.11 1000.88 C756.78 1000.88 779.44 1000.89 802.11 1000.91 C825.58 1000.92 849.05 1000.92 872.52 1000.9 C886.05 1000.89 899.58 1000.89 913.1 1000.91 C922.14 1000.92 931.18 1000.92 940.22 1000.9 C945.37 1000.89 950.51 1000.88 955.66 1000.9 C960.35 1000.92 965.04 1000.91 969.74 1000.89 C971.41 1000.88 973.09 1000.89 974.77 1000.9 C992.87 1001.03 1009.02 997.12 1022.62 984.44 C1032.19 974.23 1038.43 959.69 1038.43 945.63 C1038.44 944.5 1038.44 943.38 1038.44 942.21 C1038.44 941.59 1038.44 941.59 1038.44 938.46 C1038.44 937.13 1038.44 935.79 1038.44 934.45 C1038.45 930.77 1038.45 927.08 1038.45 923.4 C1038.45 919.39 1038.45 915.39 1038.46 911.39 C1038.46 903.44 1038.47 895.49 1038.47 887.54 C1038.47 878.02 1038.47 868.5 1038.48 858.98 C1038.5 835.97 1038.5 812.96 1038.51 789.95 C1038.51 779.07 1038.51 768.18 1038.52 757.3 C1038.53 720.03 1038.54 682.77 1038.54 645.5 C1038.54 643.17 1038.54 640.83 1038.54 638.49 C1038.54 636.14 1038.54 633.79 1038.55 631.45 C1038.55 626.74 1038.55 622.04 1038.55 617.33 C1038.55 616.75 1038.55 616.75 1038.55 613.8 C1038.55 575.98 1038.57 538.16 1038.59 500.34 C1038.61 460.36 1038.63 420.38 1038.63 380.4 C1038.63 376.01 1038.63 371.62 1038.63 367.23 C1038.63 366.15 1038.63 365.06 1038.63 363.95 C1038.63 346.56 1038.64 329.17 1038.66 311.78 C1038.67 294.3 1038.67 276.81 1038.67 259.33 C1038.66 248.95 1038.67 238.56 1038.68 228.18 C1038.69 221.24 1038.69 214.29 1038.68 207.35 C1038.67 203.4 1038.67 199.45 1038.69 195.49 C1038.81 155.23 1038.81 155.23 1030.31 138.25 C1029.89 137.35 1029.47 136.44 1029.04 135.5 C1025.11 127.54 1019.51 121.47 1013.31 115.25 C1012.57 114.51 1011.84 113.77 1011.09 113 C997.76 100.29 979.53 93.14 961.2 93.13 C960.51 93.12 959.83 93.12 959.12 93.12 C956.83 93.12 954.54 93.12 952.24 93.12 C950.58 93.12 948.91 93.12 947.24 93.11 C942.64 93.11 938.04 93.11 933.44 93.11 C928.44 93.11 923.45 93.1 918.45 93.1 C908.53 93.09 898.61 93.08 888.69 93.08 C876.81 93.08 864.93 93.07 853.05 93.06 C824.34 93.04 795.63 93.03 766.92 93.02 C757.41 93.02 747.9 93.01 738.39 93.01 C738.06 93.01 738.06 93.01 736.36 93.01 C733.65 93.01 730.93 93.01 728.22 93.01 C681.79 92.99 635.36 92.97 588.93 92.97 C585.28 92.96 581.64 92.96 577.99 92.96 C577.63 92.96 577.63 92.96 575.8 92.96 C568.47 92.96 561.14 92.96 553.81 92.96 C552.34 92.96 550.87 92.96 549.41 92.96 C502.22 92.95 455.03 92.93 407.84 92.9 C373.94 92.87 340.03 92.85 306.12 92.84 C305.77 92.84 305.77 92.84 304.01 92.84 C288.69 92.84 273.38 92.84 258.07 92.84 C251.91 92.84 245.75 92.84 239.59 92.84 C238.91 92.84 238.24 92.84 237.54 92.84 C215.83 92.83 194.12 92.82 172.41 92.8 C149.93 92.78 127.45 92.77 104.97 92.78 C92.01 92.79 79.05 92.78 66.09 92.76 C57.44 92.74 48.78 92.75 40.12 92.76 C35.19 92.77 30.26 92.77 25.33 92.75 C20.83 92.73 16.34 92.74 11.85 92.75 C10.24 92.76 8.63 92.75 7.02 92.74 C-6.4 92.66 -18.91 94.58 -30.94 101 Z " fill="#1C2431" transform="translate(543.6938343048096,300.7455244064331)"/>
<path d="M0 0 C1.72 -0 3.44 -0.01 5.17 -0.02 C9.86 -0.03 14.55 -0.02 19.24 -0.01 C24.36 0 29.48 -0.01 34.6 -0.02 C43.56 -0.03 52.52 -0.03 61.48 -0.02 C74.81 0 88.13 -0 101.46 -0.01 C123.88 -0.03 146.3 -0.03 168.72 -0.01 C190.93 -0 213.14 0.01 235.34 0 C236.74 0 238.14 0 239.53 0 C245.14 0 250.75 0 256.37 0 C272.05 -0 287.73 -0 303.42 -0 C304.13 -0 304.85 -0 305.58 -0 C328.33 -0 351.08 0.01 373.83 0.02 C374.56 0.02 375.3 0.02 376.06 0.02 C388.04 0.02 400.01 0.03 411.99 0.04 C459.48 0.06 506.97 0.06 554.46 0.05 C557.46 0.05 560.46 0.05 563.47 0.05 C564.21 0.05 564.95 0.05 565.71 0.05 C573.93 0.05 582.15 0.05 590.37 0.05 C591.11 0.05 591.84 0.05 592.6 0.05 C631.72 0.04 670.83 0.04 709.94 0.06 C715.55 0.06 721.15 0.06 726.76 0.06 C728.85 0.06 730.94 0.06 733.03 0.06 C748.31 0.07 763.59 0.07 778.87 0.06 C779.56 0.06 780.24 0.06 780.95 0.06 C784.41 0.06 787.88 0.06 791.34 0.06 C816.39 0.06 841.43 0.06 866.48 0.08 C879.72 0.09 892.97 0.1 906.21 0.09 C915.06 0.08 923.91 0.09 932.76 0.1 C937.8 0.11 942.84 0.11 947.88 0.1 C952.47 0.09 957.07 0.1 961.66 0.12 C963.3 0.12 964.94 0.12 966.59 0.11 C975.26 0.07 983.66 0.53 992.24 1.86 C993.01 1.98 993.79 2.1 994.58 2.22 C1002.24 3.52 1009.1 6.13 1016.1 9.5 C1016.8 9.83 1017.5 10.17 1018.22 10.51 C1027.79 15.14 1036.27 20.21 1044.1 27.5 C1044.59 27.95 1045.07 28.39 1045.58 28.86 C1064.91 46.71 1078.89 72.39 1080.28 99.06 C1080.36 103.24 1080.37 107.42 1080.35 111.61 C1080.35 113.23 1080.36 114.86 1080.36 116.48 C1080.37 120.94 1080.37 125.39 1080.36 129.85 C1080.36 134.7 1080.36 139.56 1080.37 144.41 C1080.38 152.91 1080.38 161.41 1080.38 169.91 C1080.37 182.55 1080.38 195.2 1080.39 207.84 C1080.4 231.73 1080.4 255.62 1080.4 279.51 C1080.4 297.96 1080.4 316.41 1080.4 334.85 C1080.4 337.5 1080.41 340.15 1080.41 342.8 C1080.41 346.8 1080.41 350.79 1080.41 354.78 C1080.42 391.9 1080.42 429.03 1080.42 466.15 C1080.42 466.85 1080.42 467.55 1080.42 468.27 C1080.42 476.07 1080.42 483.87 1080.41 491.68 C1080.41 492.38 1080.41 493.08 1080.41 493.81 C1080.41 499.66 1080.41 499.66 1080.41 502.36 C1080.41 547.41 1080.42 592.47 1080.43 637.52 C1080.44 648.88 1080.44 660.23 1080.45 671.58 C1080.45 672.28 1080.45 672.98 1080.45 673.7 C1080.46 695.25 1080.46 716.8 1080.46 738.34 C1080.46 739.02 1080.46 739.7 1080.46 740.39 C1080.46 755.91 1080.46 771.43 1080.46 786.95 C1080.46 792.26 1080.46 797.57 1080.46 802.88 C1080.46 803.53 1080.46 803.53 1080.46 806.84 C1080.46 826.59 1080.47 846.33 1080.48 866.08 C1080.49 888.54 1080.49 910.99 1080.48 933.44 C1080.47 946.01 1080.47 958.58 1080.49 971.15 C1080.49 979.54 1080.49 987.93 1080.48 996.33 C1080.47 1001.11 1080.47 1005.89 1080.48 1010.68 C1080.49 1015.03 1080.49 1019.39 1080.48 1023.74 C1080.47 1025.31 1080.48 1026.87 1080.48 1028.43 C1080.53 1037.83 1079.61 1046.41 1077.1 1055.5 C1076.77 1056.84 1076.45 1058.18 1076.14 1059.52 C1071.12 1079.2 1062.78 1095.44 1049.1 1110.5 C1048.27 1111.44 1047.43 1112.38 1046.58 1113.34 C1029.93 1131.14 1007.59 1141.41 984.1 1146.5 C983.35 1146.67 982.6 1146.85 981.82 1147.03 C973.41 1148.79 965.08 1148.78 956.53 1148.76 C954.85 1148.76 953.18 1148.76 951.5 1148.77 C946.9 1148.78 942.31 1148.77 937.71 1148.77 C932.7 1148.77 927.7 1148.77 922.69 1148.78 C913.92 1148.79 905.15 1148.79 896.38 1148.79 C883.34 1148.79 870.3 1148.8 857.26 1148.81 C832.61 1148.83 807.96 1148.83 783.31 1148.83 C780.59 1148.83 777.87 1148.83 775.15 1148.84 C774.48 1148.84 773.81 1148.84 773.11 1148.84 C758.15 1148.84 743.2 1148.84 728.24 1148.85 C722.08 1148.85 715.92 1148.85 709.76 1148.85 C709.08 1148.85 708.4 1148.85 707.7 1148.85 C668.69 1148.86 629.69 1148.87 590.68 1148.87 C589.23 1148.87 587.77 1148.87 586.31 1148.87 C579.72 1148.87 573.13 1148.87 566.54 1148.87 C563.6 1148.87 560.66 1148.87 557.73 1148.87 C556.25 1148.87 554.78 1148.87 553.31 1148.87 C506.83 1148.87 460.34 1148.88 413.85 1148.91 C402.14 1148.92 390.43 1148.93 378.72 1148.93 C378 1148.93 377.27 1148.93 376.53 1148.93 C354.3 1148.95 332.06 1148.95 309.83 1148.96 C309.48 1148.96 309.48 1148.96 307.71 1148.96 C292.38 1148.96 277.04 1148.96 261.71 1148.96 C256.22 1148.96 250.74 1148.96 245.25 1148.96 C243.88 1148.96 242.52 1148.96 241.15 1148.96 C219.43 1148.96 197.7 1148.97 175.98 1148.99 C153.48 1149 130.98 1149.01 108.48 1148.99 C95.51 1148.99 82.55 1148.99 69.59 1149.01 C60.92 1149.02 52.25 1149.02 43.59 1149 C38.65 1149 33.72 1149 28.78 1149.01 C-8.29 1149.13 -8.29 1149.13 -24.9 1144.5 C-26.86 1144.04 -28.82 1143.58 -30.78 1143.13 C-47.27 1138.28 -60.15 1129.18 -72.93 1118.08 C-74.92 1116.35 -76.95 1114.66 -79.01 1113.01 C-90.77 1102.81 -99.73 1086.01 -104.9 1071.5 C-105.33 1070.3 -105.76 1069.1 -106.21 1067.87 C-113.7 1046.11 -113.34 1024.15 -113.3 1001.44 C-113.29 996.62 -113.31 991.81 -113.32 986.99 C-113.33 978.57 -113.33 970.15 -113.33 961.72 C-113.32 949.19 -113.33 936.67 -113.34 924.14 C-113.37 900.46 -113.37 876.79 -113.37 853.11 C-113.37 834.82 -113.37 816.54 -113.38 798.25 C-113.38 795.62 -113.38 792.99 -113.38 790.36 C-113.39 789.06 -113.39 787.75 -113.39 786.41 C-113.39 785.1 -113.39 783.79 -113.39 782.45 C-113.39 781.14 -113.39 779.83 -113.39 778.48 C-113.4 741.65 -113.41 704.83 -113.41 668.01 C-113.41 667.31 -113.41 666.62 -113.41 665.9 C-113.41 658.17 -113.41 650.44 -113.4 642.7 C-113.4 640.59 -113.4 638.47 -113.4 636.36 C-113.4 634.94 -113.4 633.53 -113.4 632.12 C-113.4 587.46 -113.41 542.81 -113.44 498.16 C-113.45 486.9 -113.46 475.65 -113.47 464.4 C-113.47 463.7 -113.47 463.01 -113.47 462.3 C-113.48 440.93 -113.49 419.56 -113.49 398.19 C-113.49 397.52 -113.49 396.85 -113.5 396.15 C-113.5 380.76 -113.5 365.36 -113.49 349.96 C-113.49 344.69 -113.49 339.42 -113.49 334.15 C-113.49 332.85 -113.49 331.56 -113.49 330.22 C-113.49 310.65 -113.5 291.08 -113.52 271.52 C-113.54 249.26 -113.55 227 -113.53 204.74 C-113.52 192.29 -113.52 179.84 -113.54 167.4 C-113.56 159.07 -113.56 150.74 -113.54 142.42 C-113.53 137.68 -113.52 132.95 -113.54 128.21 C-113.72 82.78 -113.72 82.78 -103.34 62.63 C-102.92 61.77 -102.49 60.92 -102.05 60.04 C-89.27 35.21 -67.15 15 -40.67 5.68 C-27.2 1.47 -14.05 -0.09 0 0 Z M-28.15 43.25 C-28.81 43.59 -29.48 43.94 -30.16 44.29 C-50.23 54.99 -63.93 71.33 -71.03 92.94 C-73.49 101.65 -74.48 109.55 -74.41 118.64 C-74.41 120.01 -74.42 121.37 -74.42 122.73 C-74.44 126.43 -74.43 130.14 -74.42 133.85 C-74.41 137.9 -74.42 141.94 -74.43 145.99 C-74.44 153.07 -74.44 160.15 -74.43 167.23 C-74.42 177.76 -74.43 188.28 -74.44 198.81 C-74.46 217.62 -74.46 236.42 -74.45 255.23 C-74.44 271.69 -74.43 288.15 -74.44 304.6 C-74.44 305.69 -74.44 306.79 -74.44 307.91 C-74.44 312.35 -74.44 316.78 -74.44 321.21 C-74.45 362.79 -74.44 404.37 -74.42 445.95 C-74.4 482.88 -74.4 519.81 -74.42 556.74 C-74.45 598.25 -74.45 639.75 -74.44 681.26 C-74.44 685.68 -74.44 690.11 -74.44 694.53 C-74.44 695.62 -74.44 696.71 -74.44 697.83 C-74.43 714.28 -74.44 730.73 -74.45 747.17 C-74.46 765.88 -74.46 784.58 -74.43 803.28 C-74.42 813.74 -74.42 824.21 -74.44 834.67 C-74.45 841.66 -74.44 848.65 -74.42 855.65 C-74.41 859.63 -74.41 863.61 -74.42 867.59 C-74.44 871.22 -74.43 874.85 -74.41 878.48 C-74.41 880.39 -74.42 882.29 -74.43 884.2 C-74.29 901.13 -68.19 915.88 -56.54 928.18 C-42.96 940.13 -26.95 943.11 -9.42 943.01 C-7.67 943.01 -5.92 943.02 -4.17 943.03 C0.63 943.04 5.42 943.03 10.22 943.02 C15.44 943.01 20.67 943.03 25.89 943.04 C35.04 943.05 44.19 943.05 53.34 943.04 C66.95 943.03 80.56 943.04 94.17 943.06 C119.18 943.08 144.19 943.08 169.2 943.07 C172.74 943.07 176.28 943.07 179.82 943.07 C180.53 943.07 181.23 943.07 181.96 943.07 C197.56 943.07 213.16 943.07 228.76 943.07 C230.9 943.07 233.03 943.08 235.17 943.08 C240.9 943.08 246.62 943.08 252.35 943.08 C268.36 943.09 284.37 943.09 300.37 943.09 C301.1 943.09 301.83 943.09 302.58 943.09 C325.81 943.1 349.03 943.09 372.26 943.09 C373.01 943.09 373.77 943.09 374.54 943.09 C382.94 943.09 391.34 943.08 399.74 943.08 C400.5 943.08 401.26 943.08 402.04 943.08 C405.1 943.08 408.17 943.08 411.24 943.08 C459.74 943.06 508.24 943.07 556.74 943.1 C568.96 943.1 581.18 943.11 593.4 943.12 C593.78 943.12 593.78 943.12 595.68 943.12 C618.88 943.13 642.08 943.14 665.28 943.14 C665.64 943.14 665.64 943.14 667.48 943.14 C683.48 943.14 699.47 943.14 715.46 943.13 C721.18 943.13 726.91 943.13 732.63 943.13 C734.05 943.13 735.48 943.13 736.9 943.13 C759.57 943.13 782.24 943.14 804.9 943.15 C828.37 943.17 851.84 943.17 875.32 943.15 C888.84 943.13 902.37 943.13 915.9 943.16 C924.93 943.17 933.97 943.16 943.01 943.14 C948.16 943.13 953.31 943.13 958.45 943.15 C963.15 943.16 967.84 943.16 972.53 943.13 C974.21 943.13 975.89 943.13 977.56 943.15 C995.66 943.28 1011.81 939.36 1025.41 926.69 C1034.98 916.47 1041.22 901.94 1041.23 887.88 C1041.23 886.75 1041.23 885.62 1041.23 884.46 C1041.23 883.84 1041.23 883.84 1041.23 880.71 C1041.23 879.37 1041.23 878.04 1041.24 876.7 C1041.24 873.01 1041.24 869.33 1041.24 865.64 C1041.24 861.64 1041.24 857.64 1041.25 853.63 C1041.25 845.68 1041.26 837.73 1041.26 829.79 C1041.26 820.27 1041.27 810.75 1041.27 801.23 C1041.29 778.22 1041.29 755.21 1041.3 732.2 C1041.3 721.31 1041.3 710.43 1041.31 699.54 C1041.32 662.28 1041.33 625.01 1041.34 587.75 C1041.34 585.41 1041.34 583.07 1041.34 580.73 C1041.34 578.39 1041.34 576.04 1041.34 573.69 C1041.34 568.99 1041.34 564.28 1041.34 559.58 C1041.34 559 1041.34 559 1041.34 556.04 C1041.34 518.23 1041.36 480.41 1041.38 442.59 C1041.41 402.61 1041.42 362.63 1041.42 322.64 C1041.42 318.25 1041.42 313.86 1041.42 309.47 C1041.42 308.39 1041.42 307.31 1041.42 306.2 C1041.42 288.81 1041.43 271.42 1041.45 254.03 C1041.46 236.55 1041.47 219.06 1041.46 201.58 C1041.45 191.19 1041.46 180.81 1041.47 170.43 C1041.48 163.48 1041.48 156.54 1041.47 149.59 C1041.47 145.64 1041.47 141.69 1041.48 137.74 C1041.6 97.48 1041.6 97.48 1033.1 80.5 C1032.68 79.59 1032.26 78.68 1031.83 77.75 C1027.9 69.78 1022.31 63.72 1016.1 57.5 C1015.37 56.76 1014.63 56.01 1013.88 55.25 C1000.55 42.54 982.33 35.38 963.99 35.37 C963.3 35.37 962.62 35.37 961.91 35.37 C959.62 35.36 957.33 35.36 955.04 35.37 C953.37 35.36 951.7 35.36 950.03 35.36 C945.43 35.35 940.83 35.35 936.23 35.35 C931.24 35.35 926.24 35.35 921.24 35.34 C911.32 35.33 901.4 35.33 891.48 35.33 C879.6 35.32 867.72 35.32 855.85 35.31 C827.13 35.29 798.42 35.28 769.71 35.27 C760.2 35.26 750.69 35.26 741.19 35.26 C740.85 35.26 740.85 35.26 739.15 35.26 C736.44 35.25 733.72 35.25 731.01 35.25 C684.58 35.23 638.15 35.22 591.72 35.21 C588.08 35.21 584.43 35.21 580.78 35.21 C580.42 35.21 580.42 35.21 578.59 35.21 C571.26 35.21 563.93 35.21 556.61 35.21 C555.14 35.21 553.67 35.21 552.2 35.21 C505.01 35.2 457.82 35.17 410.64 35.14 C376.73 35.12 342.82 35.1 308.91 35.09 C308.56 35.09 308.56 35.09 306.8 35.09 C291.49 35.09 276.17 35.08 260.86 35.08 C254.7 35.08 248.54 35.08 242.38 35.08 C241.7 35.08 241.03 35.08 240.33 35.08 C218.62 35.08 196.91 35.07 175.2 35.05 C152.72 35.02 130.24 35.02 107.76 35.03 C94.8 35.03 81.84 35.03 68.89 35 C60.23 34.99 51.57 34.99 42.92 35 C37.98 35.01 33.05 35.01 28.12 35 C23.63 34.98 19.13 34.98 14.64 35 C13.03 35 11.42 35 9.81 34.99 C-3.61 34.9 -16.12 36.83 -28.15 43.25 Z " fill="#E7EAED" transform="translate(540.9022064208984,358.4994287490845)"/>
<path d="M0 0 C0.5 1.2 0.99 2.39 1.5 3.62 C3.91 8.49 7.38 11.26 12 14 C15.25 15.08 17.7 15.16 21.12 15.21 C21.75 15.22 21.75 15.22 24.95 15.27 C26.32 15.28 27.7 15.3 29.07 15.32 C30.48 15.34 31.89 15.36 33.3 15.38 C37 15.43 40.71 15.48 44.41 15.53 C48.19 15.58 51.97 15.64 55.75 15.69 C63.17 15.8 70.58 15.9 78 16 C78.01 16.28 78.01 16.28 78.05 17.73 C78.13 20.34 78.23 22.95 78.33 25.57 C78.36 26.46 78.38 27.36 78.41 28.28 C78.76 36.75 80.85 43.17 86.48 49.73 C91.84 54.65 97.96 56.37 105.03 56.4 C105.37 56.4 105.37 56.4 107.07 56.42 C109.3 56.44 111.53 56.43 113.76 56.43 C115.36 56.44 116.97 56.45 118.58 56.46 C122.93 56.49 127.28 56.5 131.62 56.51 C136.17 56.52 140.72 56.54 145.27 56.57 C153.88 56.61 162.49 56.64 171.1 56.66 C180.91 56.69 190.71 56.73 200.51 56.78 C220.68 56.87 240.84 56.94 261 57 C261 57.72 261 58.44 261 59.18 C261.06 102.14 261.14 145.1 261.23 188.06 C261.24 193.25 261.25 198.44 261.26 203.62 C261.26 204.14 261.26 204.14 261.27 206.75 C261.3 223.35 261.33 239.95 261.35 256.54 C261.37 273.65 261.41 290.75 261.45 307.85 C261.47 317.43 261.49 327 261.5 336.58 C261.52 375.53 261.67 414.34 264.56 453.21 C264.89 457.82 265.06 462.38 265 467 C244.02 457.08 224.14 444.96 204.53 432.6 C202.03 431.02 199.52 429.45 197 427.89 C168.83 410.24 141.18 391.5 115 371 C113.83 370.08 112.65 369.17 111.48 368.25 C95.92 356.11 80.75 343.56 66.33 330.08 C63.68 327.61 60.98 325.2 58.28 322.8 C52.77 317.85 47.53 312.68 42.31 307.44 C41.41 306.54 40.52 305.65 39.59 304.73 C35.06 300.19 30.67 295.6 26.49 290.73 C24.47 288.39 22.36 286.14 20.25 283.88 C15.02 278.14 10.26 272.11 5.52 265.96 C3.92 263.89 2.29 261.85 0.65 259.81 C-11.8 244.2 -22.66 227.64 -32 210 C-32.17 209.68 -32.17 209.68 -33.03 208.07 C-40.75 193.36 -47.69 178.08 -52 162 C-52.34 160.77 -52.67 159.55 -53.02 158.28 C-57.2 142.6 -59.52 127.26 -59.39 111.02 C-59.38 108.57 -59.39 106.11 -59.41 103.65 C-59.45 75.2 -52.6 45.28 -34 23 C-33.33 22.15 -32.65 21.31 -31.96 20.43 C-24.77 11.85 -11.73 0 0 0 Z " fill="#D7D0C6" transform="translate(155,991)"/>
<path d="M0 0 C1.57 -0 3.15 -0.01 4.72 -0.02 C9.04 -0.04 13.36 -0.01 17.67 0.03 C22.33 0.07 26.99 0.06 31.65 0.05 C39.72 0.05 47.79 0.07 55.86 0.12 C67.53 0.18 79.2 0.2 90.87 0.21 C109.8 0.23 128.73 0.28 147.66 0.36 C166.05 0.43 184.44 0.49 202.83 0.52 C203.96 0.52 205.1 0.53 206.26 0.53 C211.95 0.54 217.64 0.55 223.32 0.56 C270.5 0.64 317.68 0.78 364.85 0.96 C365.16 18.6 365.39 36.24 365.53 53.88 C365.59 62.08 365.68 70.27 365.83 78.46 C365.96 85.62 366.05 92.77 366.08 99.93 C366.09 103.71 366.13 107.48 366.23 111.26 C366.86 137.15 361.04 158.7 343.85 178.96 C337.25 184.45 332.07 186.08 323.5 186.1 C322.21 186.1 320.92 186.11 319.6 186.11 C318.17 186.11 316.74 186.11 315.31 186.11 C313.79 186.11 312.27 186.12 310.75 186.12 C306.58 186.13 302.4 186.13 298.22 186.14 C293.72 186.14 289.21 186.15 284.71 186.16 C273.83 186.18 262.96 186.19 252.08 186.2 C246.96 186.2 241.83 186.21 236.71 186.21 C219.68 186.23 202.65 186.24 185.62 186.25 C181.21 186.25 176.79 186.26 172.37 186.26 C171.27 186.26 170.17 186.26 169.04 186.26 C151.25 186.27 133.46 186.29 115.67 186.32 C97.4 186.36 79.13 186.38 60.86 186.38 C50.61 186.38 40.35 186.39 30.09 186.42 C21.36 186.44 12.63 186.45 3.89 186.44 C-0.56 186.43 -5.02 186.43 -9.47 186.45 C-13.55 186.47 -17.63 186.47 -21.72 186.45 C-23.19 186.45 -24.66 186.46 -26.14 186.47 C-38.08 186.56 -47.23 184.8 -56.1 176.45 C-62.57 168.58 -65.29 159.41 -65.31 149.43 C-65.31 148.68 -65.32 147.92 -65.32 147.15 C-65.34 144.66 -65.35 142.17 -65.35 139.68 C-65.36 137.94 -65.36 136.2 -65.37 134.46 C-65.38 130.81 -65.38 127.16 -65.39 123.51 C-65.39 118.86 -65.42 114.21 -65.45 109.56 C-65.46 105.96 -65.47 102.37 -65.47 98.77 C-65.47 97.06 -65.48 95.35 -65.5 93.63 C-65.65 72.18 -59 56.99 -45.48 40.6 C-43.52 38.19 -41.68 35.71 -39.84 33.21 C-35.38 27.22 -30.79 21.34 -26.2 15.46 C-25.91 15.09 -25.91 15.09 -24.48 13.26 C-24.23 12.94 -24.23 12.94 -22.97 11.33 C-21.15 8.96 -21.15 8.96 -20.19 7.01 C-15.58 -1.15 -8.35 -0.14 0 0 Z " fill="#EBECF0" transform="translate(610.1477966308594,1604.0379638671875)"/>
<path d="M0 0 C48.16 -0.18 96.33 -0.32 144.49 -0.41 C150.17 -0.42 155.86 -0.43 161.54 -0.44 C162.67 -0.44 163.8 -0.44 164.97 -0.45 C183.3 -0.48 201.63 -0.54 219.96 -0.62 C238.77 -0.69 257.57 -0.74 276.38 -0.75 C287.98 -0.76 299.59 -0.8 311.2 -0.86 C319.15 -0.91 327.11 -0.92 335.06 -0.91 C339.66 -0.9 344.25 -0.91 348.84 -0.95 C353.04 -0.99 357.25 -0.99 361.45 -0.97 C362.97 -0.96 364.49 -0.97 366.01 -1 C377.38 -1.18 377.38 -1.18 381.41 1.75 C383.2 3.75 384.61 5.71 386 8 C386.71 8.92 387.43 9.83 388.16 10.77 C388.79 11.63 389.42 12.49 390.06 13.38 C393.9 18.56 397.84 23.66 401.81 28.75 C403.62 31.07 405.42 33.4 407.23 35.73 C408.38 37.21 409.54 38.69 410.7 40.16 C421.02 53.24 429.29 66.11 429.31 83.34 C429.31 84.13 429.32 84.92 429.33 85.74 C429.36 88.33 429.36 90.92 429.37 93.52 C429.38 95.34 429.39 97.16 429.4 98.98 C429.41 102.79 429.42 106.6 429.43 110.41 C429.43 115.26 429.47 120.11 429.51 124.96 C429.54 128.72 429.55 132.48 429.55 136.24 C429.56 138.03 429.57 139.82 429.59 141.6 C429.74 155.52 428.21 166.64 418.11 177.16 C415.01 179.86 411.85 181.59 408 183 C407.1 183.34 406.2 183.68 405.28 184.03 C401.84 185.05 399.09 185.25 395.52 185.26 C394.88 185.26 394.88 185.26 391.61 185.28 C390.18 185.27 388.76 185.27 387.33 185.27 C385.81 185.27 384.29 185.28 382.77 185.28 C378.59 185.29 374.42 185.29 370.24 185.29 C365.73 185.29 361.23 185.3 356.72 185.31 C347.9 185.33 339.07 185.33 330.25 185.33 C323.07 185.34 315.9 185.34 308.73 185.35 C288.39 185.36 268.05 185.37 247.71 185.37 C246.61 185.37 245.52 185.37 244.39 185.37 C243.29 185.37 242.19 185.37 241.06 185.37 C223.27 185.37 205.48 185.39 187.68 185.42 C169.41 185.45 151.15 185.46 132.88 185.46 C122.62 185.46 112.36 185.46 102.11 185.48 C93.37 185.5 84.64 185.51 75.91 185.49 C71.45 185.49 67 185.49 62.54 185.5 C58.46 185.52 54.38 185.52 50.3 185.5 C48.83 185.5 47.35 185.5 45.88 185.51 C36.31 185.58 28.89 184.98 21.31 178.81 C15.38 171.6 11.19 163.74 7.25 155.31 C6.77 154.31 6.29 153.3 5.79 152.26 C-0.25 139.49 -0.25 139.49 -0.24 132.04 C-0.24 130.87 -0.25 129.7 -0.25 128.5 C-0.24 127.23 -0.23 125.96 -0.23 124.65 C-0.23 123.29 -0.23 121.93 -0.23 120.57 C-0.23 116.89 -0.22 113.21 -0.2 109.53 C-0.19 105.67 -0.19 101.82 -0.19 97.97 C-0.18 90.68 -0.16 83.39 -0.14 76.11 C-0.12 67.81 -0.11 59.51 -0.1 51.21 C-0.08 34.14 -0.04 17.07 0 0 Z " fill="#EBEDF0" transform="translate(1074,1605)"/>
<path d="M0 0 C24.75 0 49.5 0 75 0 C74.99 10.07 74.98 20.13 74.97 30.5 C74.98 36.9 74.99 43.3 75.01 49.7 C75.04 59.84 75.07 69.98 75.04 80.12 C75.03 87.51 75.04 94.9 75.07 102.29 C75.09 106.2 75.1 110.1 75.07 114.01 C74.91 144.73 74.91 144.73 83 158 C83.75 159.55 84.48 161.11 85.19 162.68 C87.06 166.48 89.01 170.25 91 174 C91.55 175.05 92.11 176.09 92.68 177.17 C97.69 185.85 104.91 191.91 114.4 195.36 C120.17 196.77 126.17 196.41 132.08 196.39 C133.62 196.39 135.16 196.4 136.7 196.4 C140.93 196.42 145.15 196.41 149.37 196.41 C153.93 196.4 158.49 196.41 163.05 196.42 C171.98 196.44 180.9 196.44 189.83 196.44 C197.09 196.43 204.35 196.44 211.61 196.44 C212.12 196.44 212.12 196.44 214.74 196.44 C216.84 196.44 218.94 196.45 221.04 196.45 C240.73 196.46 260.41 196.46 280.1 196.44 C298.1 196.43 316.1 196.45 334.1 196.47 C352.59 196.5 371.09 196.51 389.58 196.5 C399.96 196.49 410.33 196.5 420.71 196.51 C429.55 196.53 438.39 196.53 447.22 196.51 C451.73 196.5 456.23 196.5 460.74 196.52 C464.87 196.53 469 196.53 473.13 196.51 C474.62 196.5 476.11 196.51 477.6 196.52 C491.22 196.61 503.29 193.87 514 185 C523.08 175.19 527.1 163.66 527.21 150.46 C527.21 150.08 527.21 150.08 527.24 148.21 C527.27 145.77 527.29 143.33 527.32 140.89 C527.34 139.19 527.36 137.49 527.38 135.8 C527.43 131.34 527.48 126.88 527.53 122.43 C527.58 117.87 527.64 113.32 527.69 108.77 C527.8 99.85 527.9 90.92 528 82 C528.33 82 528.66 82 529 82 C529 106.09 529 130.18 529 155 C532.63 155 536.26 155 540 155 C542.66 155.17 545.31 155.37 547.96 155.63 C548.69 155.7 549.42 155.77 550.17 155.84 C552.57 156.07 554.97 156.32 557.38 156.56 C558.22 156.65 559.06 156.73 559.93 156.82 C666.76 167.73 666.76 167.73 685 182 C685.69 185 685.69 185 685 188 C680.79 192.3 675.71 193.77 670.12 195.56 C669.19 195.87 668.25 196.17 667.29 196.49 C659.59 198.94 651.96 200.59 644 202 C641.79 202.49 639.58 202.99 637.38 203.5 C625.1 206.15 612.49 207.94 599.96 208.79 C598 209 598 209 595 210 C592.17 210.32 589.36 210.59 586.52 210.83 C585.66 210.91 584.81 210.98 583.92 211.06 C581.07 211.32 578.22 211.56 575.38 211.81 C571.3 212.17 567.22 212.53 563.14 212.9 C562.1 212.99 561.07 213.08 560 213.18 C553.81 213.73 547.63 214.33 541.46 214.98 C519.04 217.32 496.6 219.05 474.12 220.62 C473.75 220.65 473.75 220.65 471.87 220.78 C442.08 222.88 412.28 224.78 382.44 225.94 C380.43 226.02 378.42 226.1 376.42 226.18 C370.62 226.4 364.82 226.63 359.02 226.85 C355.46 226.98 351.9 227.12 348.34 227.26 C311.03 228.7 273.71 230.06 236.38 231.06 C234.23 231.12 232.08 231.18 229.92 231.24 C166.9 232.98 103.85 233.27 40.8 233.31 C37.66 233.31 34.53 233.32 31.39 233.32 C-50.21 233.39 -131.72 231.89 -213.27 229.33 C-220.71 229.1 -228.14 228.88 -235.57 228.68 C-236.41 228.66 -237.25 228.64 -238.11 228.61 C-241.7 228.52 -245.29 228.43 -248.87 228.34 C-255.91 228.15 -262.9 227.75 -269.92 227.22 C-273.4 226.97 -276.86 226.83 -280.36 226.75 C-281.62 226.72 -282.88 226.69 -284.18 226.66 C-284.5 226.65 -284.5 226.65 -286.15 226.61 C-301.92 226.23 -317.64 225.4 -333.38 224.45 C-339.92 224.05 -346.46 223.71 -353 223.38 C-378.53 222.06 -404.02 220.41 -429.5 218.38 C-429.85 218.35 -429.85 218.35 -431.61 218.21 C-436.25 217.84 -440.89 217.46 -445.53 217.09 C-446.12 217.04 -446.12 217.04 -449.09 216.8 C-450.18 216.71 -451.27 216.62 -452.39 216.52 C-452.86 216.49 -452.86 216.49 -455.25 216.29 C-458.19 215.98 -461.08 215.49 -464 215 C-466.25 214.85 -468.5 214.73 -470.75 214.62 C-479.14 214.17 -487.46 213.2 -495.81 212.19 C-500.71 211.6 -505.6 211.03 -510.51 210.57 C-523.05 209.41 -535.45 207.7 -547.88 205.69 C-548.36 205.61 -548.36 205.61 -550.79 205.22 C-602.51 196.88 -602.51 196.88 -611 187 C-611.31 184.5 -611.31 184.5 -610 182 C-601.39 173.96 -586.87 171.83 -575.75 169.38 C-574.87 169.18 -573.99 168.99 -573.09 168.79 C-557.63 165.52 -541.92 163.5 -526.25 161.56 C-525.41 161.46 -524.57 161.35 -523.7 161.25 C-510.4 159.6 -497.08 158.09 -483.75 156.69 C-482.94 156.6 -482.13 156.51 -481.29 156.42 C-472.16 155.45 -463.19 154.73 -454 155 C-453.85 155.52 -453.85 155.52 -453.12 158.15 C-449.39 171.01 -444.76 183 -432.58 189.95 C-425.52 193.63 -419.76 196.12 -411.67 196.14 C-410.37 196.15 -409.06 196.16 -407.71 196.16 C-406.25 196.16 -404.8 196.17 -403.34 196.17 C-401.79 196.17 -400.25 196.18 -398.71 196.18 C-394.45 196.2 -390.2 196.21 -385.95 196.22 C-382.31 196.23 -378.66 196.24 -375.02 196.25 C-361.96 196.29 -348.91 196.32 -335.85 196.34 C-334.82 196.35 -333.79 196.35 -332.73 196.35 C-312.26 196.39 -291.79 196.42 -271.32 196.44 C-266.82 196.45 -262.32 196.45 -257.82 196.46 C-257.26 196.46 -257.26 196.46 -254.43 196.46 C-236.32 196.49 -218.21 196.53 -200.1 196.59 C-181.51 196.66 -162.91 196.69 -144.31 196.7 C-133.87 196.71 -123.43 196.72 -112.99 196.77 C-104.1 196.81 -95.2 196.83 -86.31 196.81 C-81.78 196.81 -77.24 196.81 -72.71 196.85 C-68.55 196.88 -64.39 196.88 -60.23 196.85 C-58.73 196.85 -57.24 196.86 -55.74 196.88 C-44.09 197.04 -34.57 194.59 -25.53 186.89 C-20.07 181.39 -16.64 174.4 -13.21 167.54 C-12.25 165.63 -11.27 163.73 -10.29 161.84 C-6.57 154.54 -6.57 154.54 -5 151 C-4.66 150.25 -4.33 149.5 -3.98 148.72 C-0.84 141.03 -0.42 134.15 -0.45 125.9 C-0.45 124.52 -0.43 123.14 -0.42 121.76 C-0.4 118.04 -0.39 114.33 -0.39 110.61 C-0.39 106.72 -0.36 102.83 -0.34 98.93 C-0.3 91.57 -0.28 84.21 -0.27 76.85 C-0.25 66.9 -0.2 56.94 -0.15 46.99 C-0.07 31.33 -0.04 15.66 0 0 Z " fill="#ADA69F" transform="translate(987,1605)"/>
<path d="M0 0 C2.9 2.63 4.89 5.69 7.06 8.94 C13.67 18.63 20.8 27.62 30 35 C30.69 35.6 31.38 36.2 32.09 36.81 C52.57 54.15 79.92 66.11 107.05 66.13 C107.39 66.13 107.39 66.13 109.14 66.13 C111.45 66.14 113.77 66.14 116.08 66.13 C117.77 66.14 119.45 66.14 121.13 66.14 C125.78 66.15 130.42 66.15 135.07 66.15 C140.11 66.15 145.16 66.15 150.2 66.16 C160.22 66.17 170.23 66.17 180.25 66.17 C192.25 66.18 204.24 66.19 216.23 66.19 C245.23 66.22 274.22 66.23 303.21 66.23 C312.82 66.24 322.42 66.24 332.02 66.24 C332.7 66.24 333.38 66.24 334.08 66.25 C336.82 66.25 339.56 66.25 342.3 66.25 C389.19 66.27 436.08 66.28 482.98 66.29 C486.66 66.29 490.34 66.29 494.03 66.29 C494.39 66.29 494.39 66.29 496.24 66.29 C503.64 66.29 511.05 66.29 518.45 66.29 C519.93 66.3 521.42 66.3 522.9 66.3 C570.55 66.3 618.2 66.33 665.85 66.36 C700.09 66.38 734.33 66.4 768.57 66.41 C768.92 66.41 768.92 66.41 770.71 66.41 C786.17 66.41 801.64 66.42 817.11 66.42 C823.33 66.42 829.56 66.42 835.78 66.42 C836.12 66.42 836.12 66.42 837.84 66.42 C859.77 66.42 881.69 66.43 903.61 66.46 C926.31 66.48 949.02 66.48 971.72 66.47 C984.81 66.47 997.89 66.47 1010.98 66.5 C1019.72 66.51 1028.47 66.51 1037.22 66.5 C1042.19 66.49 1047.17 66.49 1052.15 66.51 C1056.69 66.52 1061.23 66.52 1065.78 66.5 C1067.4 66.5 1069.02 66.5 1070.64 66.51 C1085.92 66.61 1100.79 64.04 1115.19 58.81 C1116.01 58.52 1116.83 58.23 1117.67 57.92 C1134.56 51.63 1148.96 41.3 1162 29 C1162.67 28.4 1163.33 27.8 1164.02 27.18 C1171.37 20.27 1177.6 11.71 1182.76 3.04 C1183.17 2.37 1183.58 1.69 1184 1 C1184.33 1 1184.66 1 1185 1 C1184 38.22 1179.4 70.44 1155 100 C1154.28 100.89 1153.56 101.77 1152.82 102.69 C1133.77 125.05 1104.73 137.79 1076 141 C1066.84 141.62 1057.65 141.47 1048.48 141.39 C1045.91 141.38 1043.34 141.38 1040.77 141.37 C1034.76 141.36 1028.76 141.33 1022.75 141.29 C1015.9 141.24 1009.04 141.22 1002.19 141.2 C988.13 141.16 974.06 141.09 960 141 C959.99 140.35 959.98 139.7 959.97 139.03 C959.92 136.04 959.83 133.05 959.75 130.06 C959.74 129.04 959.72 128.02 959.71 126.97 C959.39 117.15 956.63 109.94 949.93 102.73 C944.18 97.59 937.58 95.88 929.99 95.87 C929.49 95.87 929.49 95.87 926.98 95.86 C925.89 95.86 924.8 95.86 923.68 95.87 C922.52 95.86 921.36 95.86 920.16 95.86 C916.92 95.85 913.69 95.85 910.45 95.85 C906.93 95.85 903.41 95.85 899.89 95.84 C892.91 95.83 885.93 95.83 878.94 95.83 C870.58 95.82 862.22 95.81 853.86 95.81 C833.64 95.78 813.43 95.77 793.22 95.77 C783.66 95.76 774.1 95.76 764.54 95.75 C731.82 95.73 699.1 95.72 666.39 95.71 C664.33 95.71 662.28 95.71 660.22 95.71 C659.21 95.71 658.19 95.71 657.14 95.71 C651.98 95.71 646.82 95.71 641.65 95.7 C640.63 95.7 639.61 95.7 638.55 95.7 C605.33 95.7 572.12 95.67 538.9 95.64 C503.79 95.61 468.67 95.59 433.56 95.58 C429.71 95.58 425.86 95.58 422 95.58 C421.53 95.58 421.53 95.58 419.13 95.58 C403.85 95.58 388.57 95.56 373.29 95.54 C357.94 95.52 342.59 95.52 327.24 95.53 C318.12 95.53 308.99 95.53 299.87 95.5 C293.78 95.49 287.68 95.49 281.59 95.5 C278.12 95.51 274.65 95.51 271.17 95.49 C267.43 95.48 263.69 95.49 259.95 95.51 C258.87 95.49 257.8 95.48 256.69 95.47 C246.86 95.56 238.9 98.29 231.69 105.07 C226.82 110.63 224.98 116.93 224.68 124.2 C224.64 125.18 224.6 126.16 224.56 127.17 C224.52 128.19 224.48 129.2 224.44 130.25 C224.42 130.77 224.42 130.77 224.31 133.38 C224.2 135.92 224.1 138.46 224 141 C209.53 141.05 195.05 141.08 180.58 141.1 C173.85 141.11 167.13 141.13 160.41 141.15 C153.91 141.17 147.42 141.18 140.92 141.19 C138.45 141.19 135.98 141.2 133.51 141.21 C117.32 141.28 101.67 141.24 86.06 136.38 C85.64 136.25 85.64 136.25 83.52 135.59 C54.35 126.2 30 105.15 16 78 C13.87 73.72 11.89 69.4 10 65 C9.63 64.19 9.26 63.38 8.88 62.55 C3.42 49.41 1.79 33.78 1.18 19.64 C1 17 1 17 0.48 15.06 C-0.21 12.11 -0.09 9.28 -0.06 6.25 C-0.05 5.08 -0.04 3.91 -0.04 2.7 C-0.02 1.81 -0.01 0.92 0 0 Z " fill="#ABB3BD" transform="translate(432,1452)"/>
<path d="M0 0 C1.7 -0 3.4 -0.01 5.11 -0.01 C9.77 -0.02 14.43 -0.02 19.09 -0.01 C24.16 -0 29.24 -0.01 34.31 -0.02 C43.21 -0.03 52.1 -0.03 60.99 -0.02 C74.21 -0.01 87.43 -0.01 100.65 -0.02 C122.9 -0.04 145.15 -0.04 167.39 -0.03 C168.07 -0.03 168.75 -0.03 169.44 -0.03 C170.12 -0.03 170.8 -0.03 171.5 -0.03 C192.17 -0.02 212.83 -0.02 233.5 -0.02 C234.88 -0.02 236.27 -0.02 237.65 -0.02 C243.22 -0.03 248.78 -0.03 254.35 -0.03 C269.9 -0.03 285.45 -0.03 301.01 -0.03 C301.72 -0.03 302.42 -0.03 303.15 -0.03 C325.72 -0.03 348.28 -0.03 370.85 -0.02 C371.21 -0.02 371.21 -0.02 373.06 -0.02 C384.95 -0.02 396.83 -0.02 408.71 -0.01 C455.83 0 502.96 0 550.08 -0.01 C561.95 -0.02 573.83 -0.02 585.7 -0.02 C586.44 -0.02 587.17 -0.02 587.92 -0.02 C610.46 -0.03 633 -0.03 655.54 -0.03 C656.25 -0.03 656.96 -0.03 657.69 -0.03 C673.22 -0.03 688.76 -0.03 704.3 -0.03 C709.86 -0.03 715.42 -0.03 720.98 -0.02 C722.36 -0.02 723.74 -0.02 725.13 -0.02 C745.78 -0.02 766.44 -0.02 787.1 -0.03 C787.78 -0.03 788.46 -0.03 789.16 -0.03 C789.83 -0.03 790.51 -0.03 791.2 -0.03 C814 -0.04 836.81 -0.04 859.61 -0.02 C872.75 -0.01 885.89 -0.01 899.04 -0.02 C907.82 -0.03 916.6 -0.03 925.38 -0.01 C930.38 -0.01 935.38 -0 940.38 -0.01 C944.94 -0.02 949.49 -0.02 954.05 -0 C955.68 -0 957.31 -0 958.95 -0.01 C972.82 -0.07 985.79 1.4 998.59 7.19 C999.4 7.54 1000.2 7.9 1001.03 8.26 C1029.81 21.07 1049.9 42.2 1061.48 71.43 C1062.73 74.72 1063.94 77.98 1064.84 81.38 C1064.51 82.04 1064.18 82.7 1063.84 83.38 C1063.59 83.06 1063.59 83.06 1062.34 81.44 C1061.66 80.57 1060.98 79.71 1060.28 78.82 C1059.62 77.97 1058.96 77.12 1058.28 76.25 C1053.12 70.17 1047.49 65.05 1041.09 60.32 C1040.39 59.79 1039.69 59.27 1038.97 58.74 C1033.5 54.73 1027.92 51.39 1021.84 48.38 C1020.96 47.88 1020.08 47.38 1019.17 46.87 C1001.36 37.1 980.64 35.07 960.68 35.12 C958.97 35.12 957.26 35.11 955.54 35.11 C950.84 35.1 946.14 35.1 941.44 35.11 C936.33 35.11 931.21 35.1 926.09 35.1 C917.13 35.09 908.16 35.08 899.2 35.09 C885.87 35.09 872.54 35.08 859.21 35.07 C834.01 35.05 808.82 35.04 783.62 35.04 C780.84 35.04 778.06 35.04 775.29 35.04 C774.6 35.04 773.91 35.04 773.2 35.04 C757.91 35.04 742.62 35.04 727.34 35.03 C721.04 35.03 714.74 35.03 708.44 35.03 C707.74 35.03 707.05 35.03 706.33 35.03 C666.46 35.01 626.58 35.01 586.71 35.01 C585.22 35.01 583.73 35.01 582.24 35.01 C575.5 35.01 568.77 35.01 562.03 35.01 C559.03 35.01 556.03 35.01 553.02 35.01 C551.52 35.01 550.02 35.01 548.51 35.01 C501 35.01 453.48 34.99 405.96 34.97 C393.99 34.96 382.02 34.95 370.05 34.95 C369.31 34.94 368.57 34.94 367.81 34.94 C345.08 34.93 322.35 34.92 299.62 34.92 C299.26 34.92 299.26 34.92 297.46 34.92 C281.78 34.92 266.11 34.92 250.43 34.92 C244.82 34.92 239.21 34.92 233.61 34.92 C232.21 34.92 230.81 34.92 229.42 34.92 C207.21 34.92 185.01 34.91 162.8 34.89 C139.8 34.87 116.8 34.87 93.8 34.88 C80.55 34.89 67.3 34.89 54.05 34.87 C45.19 34.86 36.33 34.86 27.47 34.87 C22.43 34.88 17.39 34.88 12.35 34.87 C-12.63 34.79 -35.93 35.08 -59.16 45.38 C-59.77 45.64 -60.38 45.91 -61 46.19 C-77.53 53.56 -98.98 67.88 -106.16 85.38 C-108.67 77.85 -101.83 66.19 -98.41 59.25 C-84.88 32.83 -62.38 13.56 -34.07 4.26 C-22.62 0.8 -11.86 -0.06 0 0 Z " fill="#EFF3F6" transform="translate(546.1575841903687,312.6224765777588)"/>
<path d="M0 0 C0.58 0 0.58 0 3.49 0 C4.14 -0 4.78 -0 5.45 -0.01 C7.63 -0.02 9.8 -0 11.98 0.02 C13.55 0.01 15.12 0.01 16.69 0.01 C21.01 -0 25.34 0.01 29.67 0.03 C34.33 0.05 38.99 0.04 43.65 0.04 C51.73 0.04 59.8 0.05 67.88 0.07 C79.56 0.11 91.24 0.12 102.92 0.12 C121.87 0.13 140.82 0.16 159.77 0.2 C178.18 0.23 196.59 0.26 215 0.28 C216.14 0.28 217.27 0.28 218.44 0.28 C224.13 0.29 229.82 0.29 235.51 0.3 C282.74 0.34 329.96 0.41 377.19 0.5 C377.5 18.14 377.72 35.77 377.86 53.42 C377.93 61.61 378.02 69.8 378.17 78 C378.3 85.15 378.39 92.31 378.41 99.47 C378.43 103.24 378.47 107.02 378.57 110.79 C379.2 136.68 373.37 158.23 356.19 178.5 C349.58 183.99 344.39 185.62 335.81 185.62 C335.17 185.62 335.17 185.62 331.89 185.63 C330.45 185.62 329.02 185.62 327.58 185.62 C326.05 185.62 324.53 185.62 323 185.62 C318.81 185.62 314.61 185.62 310.41 185.61 C305.89 185.61 301.37 185.61 296.84 185.61 C289 185.61 281.16 185.61 273.32 185.6 C261.99 185.59 250.66 185.59 239.32 185.59 C220.94 185.59 202.55 185.58 184.16 185.57 C166.3 185.56 148.43 185.56 130.57 185.55 C129.47 185.55 128.37 185.55 127.23 185.55 C121.71 185.55 116.19 185.55 110.67 185.55 C64.84 185.54 19.02 185.52 -26.81 185.5 C-26.81 185.17 -26.81 184.84 -26.81 184.5 C-25.16 184.17 -23.51 183.84 -21.81 183.5 C-22.02 183.18 -22.02 183.18 -23.09 181.59 C-26.62 176.08 -28.57 172.06 -28.81 165.5 C-27.82 165.83 -26.83 166.16 -25.81 166.5 C-23.87 166.59 -21.92 166.63 -19.98 166.63 C-19.37 166.63 -19.37 166.63 -16.27 166.64 C-14.9 166.64 -13.54 166.64 -12.17 166.64 C-10.72 166.64 -9.28 166.64 -7.83 166.65 C-3.85 166.65 0.13 166.66 4.11 166.66 C8.4 166.66 12.69 166.67 16.98 166.67 C26.37 166.69 35.76 166.69 45.14 166.7 C51 166.7 56.86 166.7 62.72 166.71 C78.94 166.72 95.15 166.73 111.37 166.73 C111.89 166.73 111.89 166.73 114.51 166.74 C115.04 166.74 115.04 166.74 117.67 166.74 C119.78 166.74 121.89 166.74 124 166.74 C124.52 166.74 124.52 166.74 127.17 166.74 C144.12 166.74 161.07 166.76 178.03 166.78 C195.43 166.81 212.82 166.82 230.22 166.82 C240 166.82 249.77 166.83 259.54 166.84 C267.86 166.86 276.18 166.87 284.5 166.86 C288.75 166.85 292.99 166.85 297.24 166.87 C301.13 166.88 305.01 166.88 308.9 166.87 C310.31 166.87 311.71 166.87 313.12 166.88 C326.35 166.95 326.35 166.95 332.19 163.5 C337.53 158.15 339.44 153.1 339.45 145.62 C339.45 145.05 339.45 145.05 339.47 142.18 C339.46 140.97 339.46 139.75 339.46 138.5 C339.46 137.24 339.46 135.98 339.46 134.69 C339.46 132.03 339.46 129.36 339.45 126.7 C339.44 123.31 339.45 119.92 339.46 116.53 C339.47 113.27 339.46 110.01 339.46 106.75 C339.46 106.15 339.46 106.15 339.47 103.09 C339.42 94.28 339.1 86.55 333.19 79.5 C330.11 77.62 327.35 76.54 323.88 75.56 C322.99 75.21 322.1 74.86 321.19 74.5 C320.52 72.43 320.52 72.43 320.19 70.5 C311.99 70.19 311.99 70.19 308.28 70.05 C302.59 69.83 296.9 69.62 291.21 69.4 C278.2 68.91 265.18 68.42 252.17 67.93 C207.3 66.25 162.42 64.53 117.55 62.78 C112.74 62.6 107.92 62.41 103.11 62.22 C85.57 61.54 68.02 60.84 50.48 60.12 C45.48 59.91 40.48 59.71 35.48 59.52 C29.69 59.29 23.9 59.05 18.11 58.81 C16.02 58.72 13.93 58.64 11.85 58.56 C9.02 58.45 6.2 58.33 3.37 58.2 C2.56 58.17 1.76 58.15 0.93 58.12 C-5.28 57.81 -12.01 56.87 -16.87 52.75 C-18.32 49.26 -18.35 47.29 -17.81 43.5 C-14.27 35.27 -8.86 27.85 -3.81 20.5 C-5.58 20.27 -7.35 20.07 -9.12 19.87 C-10.11 19.76 -11.09 19.64 -12.11 19.52 C-14.81 19.5 -14.81 19.5 -17.81 21.5 C-16.1 17.56 -13.5 14.35 -10.87 11 C-9.99 9.86 -9.1 8.73 -8.22 7.59 C-7.42 6.57 -6.63 5.55 -5.81 4.5 C-5.39 3.78 -4.98 3.07 -4.55 2.33 C-2.81 0.5 -2.81 0.5 0 0 Z " fill="#C8CED4" transform="translate(597.8091666102409,1604.5032060146332)"/>
<path d="M0 0 C48.16 -0.18 96.33 -0.32 144.49 -0.41 C150.17 -0.42 155.86 -0.43 161.54 -0.44 C162.67 -0.44 163.8 -0.44 164.97 -0.45 C183.3 -0.48 201.63 -0.54 219.96 -0.62 C238.77 -0.69 257.57 -0.74 276.38 -0.75 C287.98 -0.76 299.59 -0.8 311.2 -0.86 C319.15 -0.91 327.11 -0.92 335.06 -0.91 C339.66 -0.9 344.25 -0.91 348.84 -0.95 C353.04 -0.99 357.25 -0.99 361.45 -0.97 C362.97 -0.96 364.49 -0.97 366.01 -1 C377.38 -1.18 377.38 -1.18 381.42 1.76 C383.19 3.76 384.61 5.72 386 8 C386.66 8.81 387.32 9.62 388 10.46 C388.47 11.09 388.95 11.72 389.44 12.38 C389.68 12.7 389.68 12.7 390.93 14.34 C392 16 392 16 392 18 C388.04 18.66 384.08 19.32 380 20 C380.51 20.71 380.51 20.71 383.06 24.28 C384.38 26.16 385.69 28.05 387 29.94 C387.67 30.86 388.34 31.79 389.02 32.74 C392.6 37.94 394.81 41.73 394.45 48.13 C393.62 51.59 391.83 53.01 389 55 C382.82 57.29 376.79 57.41 370.25 57.6 C369.12 57.64 367.99 57.68 366.82 57.72 C363.22 57.84 359.61 57.95 356 58.06 C352.42 58.18 348.84 58.3 345.26 58.42 C343.04 58.49 340.82 58.57 338.6 58.63 C333.05 58.81 327.51 59.09 321.97 59.47 C312.54 60.13 303.1 60.49 293.66 60.87 C291.67 60.95 289.69 61.03 287.71 61.11 C282.41 61.32 277.1 61.53 271.8 61.74 C268.48 61.88 265.16 62.01 261.84 62.14 C219.9 63.82 177.95 65.44 136 67 C135.66 67.01 135.66 67.01 133.91 67.08 C122.43 67.51 110.94 67.93 99.46 68.35 C84.97 68.89 70.49 69.44 56 70 C55.71 70.81 55.42 71.61 55.12 72.44 C54 75 54 75 52.01 75.93 C51.63 76.02 51.63 76.02 49.69 76.44 C44.64 77.87 42.88 79.64 40 84 C38.12 87.89 37.74 91.02 37.71 95.32 C37.7 96.57 37.68 97.83 37.67 99.12 C37.67 100.48 37.67 101.84 37.66 103.21 C37.66 104.62 37.65 106.02 37.64 107.43 C37.63 110.38 37.63 113.33 37.63 116.28 C37.63 120.04 37.6 123.81 37.57 127.57 C37.55 130.48 37.54 133.39 37.54 136.3 C37.54 137.68 37.53 139.07 37.52 140.45 C37.44 148.36 37.54 154.32 42 161 C46.93 164.92 50.6 166.12 56.8 166.13 C58.02 166.13 59.24 166.14 60.49 166.14 C61.85 166.14 63.21 166.14 64.57 166.13 C66.01 166.14 67.45 166.14 68.88 166.14 C72.84 166.15 76.8 166.15 80.77 166.15 C85.03 166.15 89.3 166.15 93.57 166.16 C101.94 166.16 110.3 166.17 118.67 166.17 C125.47 166.17 132.26 166.17 139.06 166.17 C158.33 166.18 177.59 166.19 196.86 166.19 C197.38 166.19 197.38 166.19 200.01 166.19 C201.05 166.19 202.09 166.19 203.16 166.19 C220.02 166.18 236.89 166.19 253.75 166.21 C271.05 166.22 288.36 166.23 305.66 166.23 C315.38 166.23 325.1 166.23 334.82 166.24 C343.1 166.25 351.38 166.25 359.65 166.25 C363.87 166.24 368.1 166.24 372.32 166.25 C376.19 166.26 380.05 166.26 383.92 166.25 C385.32 166.25 386.72 166.25 388.12 166.26 C390.02 166.26 391.92 166.26 393.82 166.25 C394.35 166.25 394.35 166.25 397.02 166.25 C400.27 165.98 402.96 165.15 406 164 C403.01 177.99 403.01 177.99 398 183 C399.32 183.66 400.64 184.32 402 185 C355.14 185.09 308.29 185.16 261.43 185.2 C255.9 185.21 250.37 185.21 244.84 185.22 C244.29 185.22 244.29 185.22 241.5 185.22 C223.67 185.24 205.84 185.27 188.01 185.31 C169.71 185.35 151.42 185.37 133.12 185.38 C121.83 185.38 110.54 185.4 99.25 185.43 C91.51 185.45 83.77 185.46 76.02 185.45 C71.56 185.45 67.09 185.46 62.62 185.48 C58.53 185.5 54.44 185.5 50.35 185.48 C48.87 185.48 47.39 185.49 45.92 185.5 C36.33 185.58 28.9 184.99 21.31 178.81 C15.38 171.6 11.19 163.74 7.25 155.31 C6.77 154.31 6.29 153.3 5.79 152.26 C-0.25 139.49 -0.25 139.49 -0.24 132.04 C-0.24 130.87 -0.25 129.7 -0.25 128.5 C-0.24 127.23 -0.23 125.96 -0.23 124.65 C-0.23 123.29 -0.23 121.93 -0.23 120.57 C-0.23 116.89 -0.22 113.21 -0.2 109.53 C-0.19 105.67 -0.19 101.82 -0.19 97.97 C-0.18 90.68 -0.16 83.39 -0.14 76.11 C-0.12 67.81 -0.11 59.51 -0.1 51.21 C-0.08 34.14 -0.04 17.07 0 0 Z " fill="#C9CFD5" transform="translate(1074,1605)"/>
<path d="M0 0 C0.66 -0 1.32 -0 1.99 -0 C4.21 -0 6.43 0 8.65 0.01 C10.27 0.01 11.88 0.01 13.49 0.01 C17.82 0.01 22.15 0.01 26.47 0.02 C30.53 0.02 34.59 0.02 38.65 0.03 C50.52 0.03 62.4 0.04 74.27 0.06 C87.53 0.07 87.53 0.07 154.65 0.12 C154.65 53.58 154.65 107.04 154.65 162.12 C141.5 162.15 141.5 162.15 74.96 162.31 C70.81 162.32 70.81 162.32 49.79 162.39 C39.65 162.4 39.65 162.4 34.91 162.41 C31.59 162.41 28.28 162.42 24.96 162.44 C20.73 162.46 16.5 162.46 12.27 162.46 C10.72 162.46 9.17 162.47 7.61 162.48 C5.52 162.49 3.42 162.49 1.32 162.48 C0.15 162.48 -1.03 162.49 -2.24 162.49 C-7.53 161.86 -10.91 159.05 -14.35 155.12 C-15.41 151.96 -15.49 149.7 -15.52 146.38 C-15.53 145.19 -15.54 143.99 -15.55 142.76 C-15.56 141.45 -15.57 140.13 -15.58 138.78 C-15.59 137.38 -15.6 135.99 -15.61 134.59 C-15.65 130 -15.67 125.42 -15.7 120.83 C-15.7 120.05 -15.7 119.27 -15.71 118.46 C-15.74 111.09 -15.78 103.72 -15.8 96.35 C-15.83 86.94 -15.88 77.52 -15.96 68.1 C-16.01 61.47 -16.04 54.85 -16.05 48.22 C-16.06 44.27 -16.08 40.31 -16.12 36.36 C-16.17 32.63 -16.18 28.91 -16.16 25.19 C-16.16 23.18 -16.2 21.17 -16.23 19.16 C-16.18 13.07 -15.97 9.05 -11.93 4.31 C-7.91 0.39 -5.61 -0 0 0 Z " fill="#EAEDF0" transform="translate(261.3526916503906,873.8797454833984)"/>
<path d="M0 0 C0.2 4.89 0.34 9.78 0.44 14.68 C0.48 16.34 0.53 18.01 0.6 19.67 C1.16 33.44 1.16 33.44 -1.56 37.1 C-3.67 38.44 -5.62 39.23 -8 40 C-9.24 40.62 -10.46 41.26 -11.68 41.92 C-11.97 42.07 -11.97 42.07 -13.48 42.83 C-38.11 55.24 -53.46 77.87 -62.18 103.45 C-64.19 110.13 -65.71 116.93 -67.19 123.75 C-67.35 124.52 -67.52 125.29 -67.69 126.08 C-79.19 181.45 -58.42 241.47 -28.38 287.56 C-26.28 290.73 -24.15 293.87 -22 297 C-21.55 297.66 -21.1 298.32 -20.63 298.99 C-8.91 315.99 4.24 331.94 18.3 347.05 C20.25 349.16 22.12 351.32 23.99 353.51 C28.93 359.18 34.3 364.45 39.62 369.75 C41.43 371.56 43.24 373.37 45.04 375.18 C50.86 381 56.72 386.68 63 392 C64.61 393.45 66.21 394.91 67.81 396.38 C72.06 400.2 76.41 403.85 80.85 407.44 C83.18 409.32 85.48 411.23 87.77 413.15 C113.8 434.89 141.7 454.36 170 473 C170.62 473.41 171.25 473.82 171.89 474.25 C193.68 488.59 216 502.14 238.81 514.8 C240.3 515.64 241.79 516.48 243.27 517.33 C247.12 519.52 250.94 521.43 255.06 523.07 C264.6 527.12 264.6 527.12 268 531 C270.41 537.04 269.94 543.66 269.9 550.05 C270.06 554.94 271.08 559.61 272.12 564.38 C272.31 565.24 272.49 566.11 272.68 567.01 C273.11 569.01 273.55 571 274 573 C266.43 570.77 259.84 567.48 252.94 563.69 C251.8 563.07 250.66 562.45 249.48 561.81 C238.93 556.04 228.55 550 218.2 543.88 C214.8 541.88 211.38 539.91 207.96 537.94 C192.21 528.84 176.88 519.27 161.74 509.16 C159.27 507.51 156.78 505.87 154.3 504.24 C133.41 490.45 113.17 476.03 93.32 460.78 C91.33 459.25 89.34 457.73 87.34 456.22 C68.96 442.2 51.42 427.3 34.63 411.41 C31.82 408.76 28.97 406.17 26.06 403.62 C21.32 399.39 16.82 394.92 12.31 390.44 C11.6 389.73 10.89 389.02 10.15 388.29 C6.16 384.29 2.35 380.19 -1.34 375.91 C-3.94 372.93 -6.66 370.07 -9.38 367.19 C-14.85 361.33 -20 355.28 -25 349 C-25.92 347.87 -26.84 346.74 -27.76 345.62 C-33.29 338.83 -38.62 331.91 -43.75 324.81 C-44.26 324.11 -44.76 323.41 -45.28 322.69 C-65.94 293.87 -82.94 263.23 -94.15 229.54 C-94.85 227.46 -95.57 225.39 -96.3 223.32 C-99.71 213.19 -101.34 202.54 -103 192 C-103.09 191.44 -103.09 191.44 -103.55 188.63 C-105.08 178.42 -105.4 168.38 -105.38 158.06 C-105.38 157.21 -105.38 156.36 -105.38 155.48 C-105.35 141.3 -104.11 127.86 -101 114 C-100.7 112.5 -100.41 111.01 -100.12 109.51 C-92.99 74.15 -72.35 37.99 -42.06 17.51 C-30.03 9.68 -14.64 -0.19 0 0 Z " fill="#E7EAEE" transform="translate(154,941)"/>
<path d="M0 0 C1.17 -0.01 2.34 -0.02 3.55 -0.03 C6.8 -0.05 10.05 -0.03 13.31 -0.01 C16.84 0.01 20.38 -0.01 23.92 -0.02 C30.12 -0.04 36.32 -0.04 42.52 -0.02 C51.74 0.02 60.96 0.01 70.18 -0 C86.64 -0.03 103.1 -0.02 119.57 0.02 C133.97 0.04 148.38 0.05 162.79 0.05 C163.74 0.05 164.7 0.05 165.68 0.05 C169.56 0.05 173.44 0.05 177.31 0.05 C213.69 0.04 250.07 0.08 286.45 0.13 C318.78 0.17 351.11 0.19 383.44 0.19 C385.52 0.19 387.6 0.19 389.67 0.18 C390.7 0.18 391.73 0.18 392.78 0.18 C397.95 0.18 403.12 0.18 408.28 0.18 C409.3 0.18 410.32 0.18 411.37 0.18 C438.38 0.18 465.38 0.19 492.38 0.21 C493.34 0.21 494.31 0.21 495.29 0.21 C495.77 0.21 495.77 0.21 498.2 0.22 C499.16 0.22 500.11 0.22 501.1 0.22 C503.03 0.22 504.95 0.22 506.88 0.22 C520.33 0.23 533.77 0.24 547.22 0.24 C564.54 0.23 581.86 0.25 599.19 0.28 C608.35 0.3 617.52 0.31 626.69 0.3 C632.8 0.29 638.92 0.3 645.04 0.33 C648.53 0.34 652.01 0.34 655.5 0.33 C659.26 0.32 663.01 0.34 666.76 0.36 C667.85 0.35 668.94 0.34 670.06 0.33 C675.93 0.4 679.81 0.64 684.26 4.87 C689.26 12.87 689.26 12.87 689.26 33.87 C454.3 33.87 219.34 33.87 -22.74 33.87 C-22.74 12.07 -22.74 12.07 -18.11 5.59 C-12.35 0.34 -7.62 -0.12 0 0 Z " fill="#9097A2" transform="translate(690.7436084747314,1559.1274919509888)"/>
<path d="M0 0 C3 1 3 1 4.51 3.74 C5.04 4.92 5.58 6.1 6.12 7.31 C9.58 14.59 13.87 20.77 19 27 C19.76 27.94 20.52 28.87 21.3 29.84 C40.08 51.78 68.73 63.47 97 66 C102.74 66.32 108.49 66.27 114.24 66.26 C115.93 66.26 117.63 66.26 119.33 66.27 C123.97 66.28 128.62 66.27 133.26 66.27 C138.33 66.27 143.39 66.27 148.45 66.28 C157.31 66.29 166.18 66.29 175.04 66.29 C188.23 66.29 201.41 66.3 214.59 66.31 C239.5 66.33 264.42 66.33 289.33 66.33 C292.08 66.33 294.82 66.33 297.57 66.33 C297.91 66.33 297.91 66.33 299.64 66.33 C314.75 66.34 329.87 66.34 344.98 66.34 C351.21 66.35 357.44 66.35 363.67 66.35 C364.36 66.35 365.05 66.35 365.76 66.35 C405.19 66.36 444.62 66.37 484.04 66.37 C485.52 66.37 486.99 66.37 488.47 66.37 C495.13 66.37 501.79 66.37 508.44 66.37 C511.41 66.37 514.38 66.37 517.35 66.37 C518.84 66.37 520.32 66.37 521.81 66.37 C568.8 66.37 615.78 66.38 662.77 66.41 C674.61 66.42 686.45 66.43 698.29 66.43 C698.65 66.43 698.65 66.43 700.49 66.43 C722.97 66.45 745.45 66.45 767.93 66.46 C768.64 66.46 769.34 66.46 770.07 66.46 C785.57 66.46 801.07 66.46 816.57 66.46 C822.11 66.46 827.66 66.46 833.21 66.46 C834.59 66.46 835.97 66.46 837.35 66.46 C859.31 66.46 881.27 66.47 903.23 66.49 C925.96 66.5 948.7 66.51 971.44 66.49 C984.55 66.49 997.65 66.49 1010.75 66.51 C1019.51 66.52 1028.27 66.52 1037.03 66.5 C1042.01 66.5 1047 66.49 1051.98 66.51 C1093.22 66.64 1127.27 60.69 1158.41 31.65 C1165.41 24.49 1170.71 16.29 1175.35 7.46 C1177.69 3.1 1177.69 3.1 1181 2 C1178.16 19.4 1167.56 34.27 1156 47 C1155.17 47.94 1154.34 48.88 1153.48 49.84 C1136.83 67.64 1114.49 77.91 1091 83 C1090.25 83.17 1089.5 83.35 1088.72 83.53 C1080.31 85.29 1071.98 85.28 1063.43 85.26 C1061.75 85.26 1060.08 85.26 1058.4 85.27 C1053.81 85.28 1049.21 85.27 1044.61 85.27 C1039.6 85.27 1034.6 85.27 1029.6 85.28 C1020.83 85.29 1012.05 85.29 1003.28 85.29 C990.24 85.29 977.2 85.3 964.16 85.31 C939.51 85.33 914.86 85.33 890.21 85.33 C887.49 85.33 884.77 85.33 882.06 85.33 C881.38 85.33 880.71 85.33 880.01 85.33 C865.06 85.34 850.1 85.34 835.15 85.34 C828.99 85.35 822.82 85.35 816.66 85.35 C815.98 85.35 815.3 85.35 814.6 85.35 C775.6 85.36 736.59 85.37 697.59 85.37 C696.13 85.37 694.67 85.37 693.21 85.37 C686.62 85.37 680.03 85.37 673.44 85.37 C670.5 85.37 667.57 85.37 664.63 85.37 C663.16 85.37 661.69 85.37 660.22 85.37 C613.73 85.37 567.24 85.38 520.75 85.41 C509.04 85.42 497.33 85.43 485.62 85.43 C484.9 85.43 484.18 85.43 483.43 85.43 C461.2 85.45 438.96 85.45 416.73 85.46 C416.38 85.46 416.38 85.46 414.61 85.46 C399.28 85.46 383.95 85.46 368.61 85.46 C363.13 85.46 357.64 85.46 352.15 85.46 C350.79 85.46 349.42 85.46 348.06 85.46 C326.33 85.46 304.61 85.47 282.88 85.49 C260.38 85.5 237.88 85.51 215.38 85.49 C202.42 85.49 189.45 85.49 176.49 85.51 C167.82 85.52 159.15 85.52 150.49 85.5 C145.55 85.5 140.62 85.49 135.69 85.51 C98.61 85.63 98.61 85.63 82 81 C80.04 80.54 78.08 80.08 76.12 79.62 C59.63 74.78 46.76 65.68 33.97 54.58 C31.98 52.85 29.95 51.16 27.89 49.51 C14.36 37.77 3.66 17.32 0 0 Z " fill="#B4BCC5" transform="translate(434,1422)"/>
<path d="M0 0 C125.4 0 250.8 0 380 0 C380 45.87 380 91.74 380 139 C379.67 139 379.34 139 379 139 C379 93.46 379 47.92 379 1 C377.68 1 376.36 1 375 1 C374.88 2.01 374.76 3.02 374.64 4.06 C374.01 7.91 373.05 11.34 371.82 15.04 C371.61 15.69 371.39 16.34 371.17 17.01 C370.5 19.07 369.81 21.13 369.12 23.19 C366.07 32.38 363.18 41.54 361 51 C360.22 50.38 359.43 49.76 358.62 49.12 C350.38 43.74 338.6 44.33 329.05 43.62 C326.6 43.44 324.14 43.25 321.69 43.06 C312.62 42.36 303.55 41.77 294.46 41.37 C290.33 41.18 286.28 40.8 282.17 40.25 C277.68 39.73 273.15 39.53 268.63 39.28 C267.56 39.22 266.48 39.16 265.38 39.09 C261.96 38.89 258.54 38.7 255.12 38.5 C251.72 38.3 248.31 38.11 244.9 37.91 C242.78 37.79 240.67 37.66 238.55 37.55 C233.18 37.23 227.84 36.8 222.49 36.24 C218.04 35.81 213.58 35.59 209.12 35.35 C207.01 35.23 204.89 35.12 202.77 35 C202.22 34.97 202.22 34.97 199.43 34.81 C170.16 33.2 140.93 31.23 111.72 28.84 C111.09 28.79 111.09 28.79 107.9 28.53 C102.66 28.1 97.43 27.67 92.19 27.24 C68.99 25.33 45.77 23.72 22.54 22.26 C21.32 22.18 20.1 22.1 18.84 22.02 C16.57 21.88 14.29 21.73 12.02 21.6 C11.01 21.53 10.01 21.47 8.98 21.4 C8.11 21.35 7.24 21.29 6.34 21.24 C4.14 21.01 2.13 20.6 0 20 C1.59 15.44 3.99 11.69 6.62 7.69 C7.05 7.04 7.47 6.4 7.9 5.73 C8.93 4.15 9.96 2.58 11 1 C9.02 1.16 9.02 1.16 -1 2 C-0.67 1.34 -0.34 0.68 0 0 Z " fill="#8E96A1" transform="translate(595,1605)"/>
<path d="M0 0 C125.07 0 250.14 0 379 0 C379 0.33 379 0.66 379 1 C375.37 1.33 371.74 1.66 368 2 C368.71 3.05 369.42 4.1 370.15 5.18 C371.08 6.55 372.01 7.93 372.94 9.31 C373.17 9.66 373.17 9.66 374.36 11.4 C374.81 12.07 375.25 12.74 375.71 13.43 C376.13 14.04 376.54 14.65 376.97 15.28 C378 17 378 17 379 20 C364.86 21.95 350.68 22.82 336.44 23.69 C329.55 24.11 322.66 24.55 315.77 24.98 C315.09 25.03 314.41 25.07 313.71 25.12 C301.48 25.89 289.27 26.74 277.06 27.69 C276.27 27.75 275.47 27.81 274.65 27.87 C272.45 28.04 270.24 28.21 268.04 28.39 C266.83 28.48 265.63 28.58 264.39 28.67 C262.09 28.9 259.79 29.18 257.5 29.51 C253.97 30 250.49 30.27 246.93 30.46 C246.27 30.5 245.61 30.54 244.93 30.58 C243.51 30.66 242.08 30.74 240.66 30.82 C236.82 31.03 232.98 31.25 229.14 31.47 C228.37 31.51 227.59 31.56 226.78 31.6 C216 32.23 205.22 32.96 194.44 33.7 C190.17 33.99 185.91 34.27 181.64 34.56 C177.65 34.83 173.66 35.09 169.66 35.36 C167.7 35.49 165.73 35.63 163.77 35.76 C160.99 35.94 158.22 36.13 155.45 36.32 C154.63 36.37 153.81 36.42 152.96 36.48 C148.33 36.8 143.72 37.24 139.11 37.77 C136.06 38.1 133.01 38.27 129.95 38.43 C128.62 38.5 127.28 38.57 125.95 38.65 C125.26 38.68 124.56 38.72 123.85 38.76 C109.86 39.51 95.91 40.55 81.95 41.76 C72.93 42.55 63.92 43.23 54.88 43.56 C48.22 43.81 41.62 44.23 35 44.94 C34.28 45.01 33.55 45.09 32.8 45.16 C28.66 45.64 24.83 46.32 21 48 C20.67 48.99 20.34 49.98 20 51 C18.07 48.11 17.24 45.95 16.23 42.65 C15.9 41.58 15.57 40.51 15.23 39.4 C14.89 38.26 14.54 37.12 14.19 35.94 C13.83 34.77 13.48 33.61 13.11 32.41 C10.78 24.73 8.55 17.02 6.46 9.26 C5.09 4.18 5.09 4.18 4 2 C2.68 1.34 1.36 0.68 0 0 Z " fill="#8E96A1" transform="translate(1074,1605)"/>
<path d="M0 0 C0.9 -0.01 1.81 -0.01 2.74 -0.02 C3.74 -0.02 4.73 -0.02 5.76 -0.02 C6.82 -0.03 7.87 -0.03 8.96 -0.04 C12.52 -0.05 16.08 -0.06 19.65 -0.07 C22.19 -0.08 24.73 -0.09 27.28 -0.1 C34.93 -0.13 42.58 -0.15 50.23 -0.16 C52.39 -0.17 54.55 -0.17 56.71 -0.18 C70.12 -0.21 83.53 -0.24 96.94 -0.25 C100.04 -0.26 103.15 -0.26 106.26 -0.27 C106.64 -0.27 106.64 -0.27 108.6 -0.27 C121.11 -0.29 133.62 -0.33 146.13 -0.38 C158.97 -0.43 171.81 -0.46 184.65 -0.47 C191.87 -0.47 199.08 -0.48 206.29 -0.53 C213.07 -0.56 219.85 -0.57 226.64 -0.56 C229.13 -0.56 231.62 -0.57 234.11 -0.59 C237.51 -0.62 240.91 -0.61 244.3 -0.59 C245.29 -0.61 246.29 -0.62 247.31 -0.64 C253.77 -0.55 253.77 -0.55 256.45 1.4 C259.86 5.25 260.45 8.85 260.35 13.8 C260.35 14.52 260.36 15.23 260.36 15.97 C260.36 17.47 260.34 18.97 260.32 20.47 C260.29 22.77 260.3 25.06 260.32 27.35 C260.31 28.81 260.3 30.28 260.29 31.74 C260.29 32.42 260.3 33.11 260.3 33.81 C260.22 37.13 259.92 38.88 257.88 41.54 C254.72 43.89 252.18 44.27 248.36 44.28 C247.46 44.28 246.56 44.29 245.64 44.29 C245.14 44.29 245.14 44.29 242.65 44.29 C241.6 44.3 240.55 44.3 239.47 44.31 C235.94 44.32 232.41 44.33 228.89 44.33 C226.36 44.34 223.84 44.35 221.32 44.36 C213.74 44.38 206.15 44.4 198.57 44.41 C196.43 44.41 194.29 44.42 192.15 44.42 C178.85 44.45 165.56 44.47 152.26 44.48 C149.18 44.48 146.1 44.49 143.02 44.49 C142.64 44.49 142.64 44.49 140.7 44.49 C128.3 44.5 115.9 44.54 103.5 44.58 C90.77 44.62 78.04 44.65 65.31 44.65 C58.16 44.65 51.01 44.67 43.86 44.7 C37.14 44.73 30.42 44.74 23.69 44.72 C21.22 44.72 18.75 44.73 16.28 44.75 C12.92 44.77 9.55 44.76 6.18 44.75 C5.2 44.76 4.22 44.78 3.21 44.79 C-1.19 44.74 -4.33 44.58 -7.88 41.82 C-10.89 38.45 -11.12 35.93 -11 31.61 C-11 30.9 -11.01 30.18 -11.01 29.45 C-11 27.94 -10.98 26.44 -10.95 24.94 C-10.9 22.65 -10.91 20.36 -10.92 18.07 C-10.91 16.6 -10.9 15.14 -10.88 13.67 C-10.88 12.99 -10.88 12.31 -10.88 11.61 C-10.74 6.89 -9.6 4.47 -6.28 1.14 C-3.95 -0.02 -2.59 0.01 0 0 Z " fill="#F9FBFA" transform="translate(899.2770280838013,983.8601922988892)"/>
<path d="M0 0 C0.83 0.16 0.83 0.16 5 1 C7.71 8.82 10.23 16.63 12.38 24.62 C14.26 31.59 16.37 38.46 18.62 45.31 C18.91 46.2 19.2 47.09 19.5 48.01 C20.96 52.36 22.52 56.11 25 60 C25 60.66 25 61.32 25 62 C25.54 62.25 26.07 62.49 26.62 62.75 C29 64 29 64 32.06 66.06 C35.47 68.31 38.02 69.11 42.01 69.32 C42.77 69.36 43.53 69.4 44.31 69.44 C45.09 69.48 45.88 69.52 46.69 69.56 C47.09 69.58 47.09 69.58 49.1 69.69 C51.07 69.8 53.03 69.9 55 70 C54.62 71.95 54.62 71.95 54 74 C52.11 74.84 52.11 74.84 49.75 75.38 C44.69 76.85 42.89 78.62 40 83 C38.12 86.89 37.74 90.02 37.71 94.32 C37.7 95.57 37.68 96.83 37.67 98.12 C37.67 99.48 37.67 100.84 37.66 102.21 C37.66 103.62 37.65 105.02 37.64 106.43 C37.63 109.38 37.63 112.33 37.63 115.28 C37.63 119.04 37.6 122.81 37.57 126.57 C37.55 129.48 37.54 132.39 37.54 135.3 C37.54 136.68 37.53 138.07 37.52 139.45 C37.44 147.36 37.54 153.32 42 160 C46.93 163.92 50.6 165.12 56.8 165.13 C58.02 165.13 59.24 165.14 60.49 165.14 C61.85 165.14 63.21 165.14 64.57 165.13 C66.01 165.14 67.45 165.14 68.88 165.14 C72.84 165.15 76.8 165.15 80.77 165.15 C85.03 165.15 89.3 165.15 93.57 165.16 C101.94 165.16 110.3 165.17 118.67 165.17 C125.47 165.17 132.26 165.17 139.06 165.17 C158.33 165.18 177.59 165.19 196.86 165.19 C197.38 165.19 197.38 165.19 200.01 165.19 C201.05 165.19 202.09 165.19 203.16 165.19 C220.02 165.18 236.89 165.19 253.75 165.21 C271.05 165.22 288.36 165.23 305.66 165.23 C315.38 165.23 325.1 165.23 334.82 165.24 C343.1 165.25 351.38 165.25 359.65 165.25 C363.87 165.24 368.1 165.24 372.32 165.25 C376.19 165.26 380.05 165.26 383.92 165.25 C385.32 165.25 386.72 165.25 388.12 165.26 C390.02 165.26 391.92 165.26 393.82 165.25 C394.35 165.25 394.35 165.25 397.02 165.25 C400.27 164.98 402.96 164.15 406 163 C403.01 176.99 403.01 176.99 398 182 C399.32 182.66 400.64 183.32 402 184 C355.14 184.09 308.29 184.16 261.43 184.2 C255.9 184.21 250.37 184.21 244.84 184.22 C244.29 184.22 244.29 184.22 241.5 184.22 C223.67 184.24 205.84 184.27 188.01 184.31 C169.71 184.35 151.42 184.37 133.12 184.38 C121.83 184.38 110.54 184.4 99.25 184.43 C91.51 184.45 83.77 184.46 76.02 184.45 C71.56 184.45 67.09 184.46 62.62 184.48 C58.53 184.5 54.44 184.5 50.35 184.48 C48.87 184.48 47.39 184.49 45.92 184.5 C36.33 184.58 28.9 183.99 21.31 177.81 C15.38 170.6 11.19 162.74 7.25 154.31 C6.77 153.31 6.29 152.3 5.79 151.26 C-0.25 138.49 -0.25 138.49 -0.24 131.08 C-0.24 129.92 -0.25 128.76 -0.25 127.56 C-0.24 126.3 -0.23 125.04 -0.23 123.74 C-0.23 122.39 -0.23 121.04 -0.23 119.69 C-0.23 116.04 -0.22 112.38 -0.2 108.73 C-0.19 104.9 -0.19 101.08 -0.19 97.26 C-0.18 90.02 -0.16 82.79 -0.14 75.55 C-0.12 67.31 -0.11 59.07 -0.1 50.83 C-0.08 33.89 -0.04 16.94 0 0 Z " fill="#B0B6BD" transform="translate(1074,1606)"/>
<path d="M0 0 C1.32 0 2.64 0 4 0 C4.28 17.8 4.49 35.61 4.62 53.41 C4.68 61.68 4.77 69.95 4.91 78.22 C5.03 85.45 5.1 92.67 5.13 99.89 C5.14 103.7 5.18 107.51 5.27 111.32 C5.83 136.36 0.58 157.32 -16 177 C-22.61 182.5 -27.8 184.13 -36.38 184.12 C-37.03 184.12 -37.03 184.12 -40.3 184.13 C-41.74 184.13 -43.17 184.12 -44.61 184.12 C-46.14 184.12 -47.66 184.12 -49.19 184.12 C-53.38 184.13 -57.58 184.12 -61.78 184.12 C-66.3 184.11 -70.82 184.11 -75.35 184.11 C-83.19 184.11 -91.03 184.11 -98.87 184.11 C-110.2 184.1 -121.53 184.09 -132.87 184.09 C-151.26 184.09 -169.64 184.08 -188.03 184.08 C-205.89 184.07 -223.76 184.06 -241.62 184.05 C-242.72 184.05 -243.82 184.05 -244.96 184.05 C-250.48 184.05 -256 184.05 -261.53 184.05 C-307.35 184.04 -353.18 184.02 -399 184 C-399 183.67 -399 183.34 -399 183 C-397.35 182.67 -395.7 182.34 -394 182 C-394.21 181.69 -394.21 181.69 -395.28 180.09 C-398.81 174.58 -400.76 170.56 -401 164 C-400.01 164.33 -399.02 164.66 -398 165 C-396.06 165.09 -394.11 165.13 -392.17 165.13 C-391.56 165.13 -391.56 165.13 -388.46 165.14 C-387.09 165.14 -385.73 165.14 -384.36 165.14 C-382.92 165.14 -381.47 165.15 -380.02 165.15 C-376.04 165.16 -372.06 165.16 -368.08 165.16 C-363.79 165.16 -359.5 165.17 -355.21 165.18 C-345.82 165.19 -336.44 165.2 -327.05 165.2 C-321.19 165.2 -315.33 165.21 -309.47 165.21 C-293.26 165.22 -277.04 165.23 -260.82 165.24 C-260.3 165.24 -260.3 165.24 -257.68 165.24 C-257.16 165.24 -257.16 165.24 -254.52 165.24 C-252.41 165.24 -250.3 165.24 -248.19 165.24 C-247.67 165.24 -247.67 165.24 -245.02 165.24 C-228.07 165.24 -211.12 165.26 -194.16 165.29 C-176.77 165.31 -159.37 165.32 -141.97 165.32 C-132.2 165.32 -122.42 165.33 -112.65 165.35 C-104.33 165.36 -96.01 165.37 -87.69 165.36 C-83.44 165.36 -79.2 165.36 -74.95 165.37 C-71.07 165.38 -67.18 165.38 -63.29 165.37 C-61.88 165.37 -60.48 165.37 -59.07 165.38 C-45.84 165.46 -45.84 165.46 -40 162 C-34.66 156.66 -32.75 151.61 -32.74 144.12 C-32.74 143.55 -32.74 143.55 -32.72 140.68 C-32.73 139.47 -32.73 138.26 -32.73 137.01 C-32.73 135.75 -32.73 134.49 -32.73 133.19 C-32.73 130.53 -32.73 127.87 -32.74 125.21 C-32.75 121.82 -32.74 118.42 -32.73 115.03 C-32.72 111.77 -32.73 108.52 -32.73 105.26 C-32.73 104.65 -32.73 104.65 -32.72 101.6 C-32.77 92.78 -33.1 85.05 -39 78 C-42.8 75.69 -46.76 74.31 -51 73 C-51 71.68 -51 70.36 -51 69 C-49.85 69.03 -48.71 69.07 -47.53 69.11 C-46 69.13 -44.47 69.16 -42.94 69.19 C-42.19 69.21 -41.43 69.24 -40.66 69.26 C-32.8 69.37 -27.35 66.9 -21.51 61.61 C-18.03 57.89 -16.9 53.87 -16 49 C-15.86 48.73 -15.86 48.73 -15.13 47.35 C-13.54 44.04 -12.55 40.56 -11.5 37.05 C-11.27 36.28 -11.04 35.51 -10.79 34.71 C-10.05 32.25 -9.3 29.78 -8.56 27.31 C-7.82 24.86 -7.08 22.42 -6.34 19.97 C-5.88 18.45 -5.42 16.93 -4.97 15.41 C-3.41 10.24 -1.73 5.11 0 0 Z " fill="#B0B6BD" transform="translate(970,1606)"/>
<path d="M0 0 C24.09 0 48.18 0 73 0 C73 44.88 73 89.76 73 136 C48.91 136 24.82 136 0 136 C0 91.12 0 46.24 0 0 Z " fill="#D8D1C7" transform="translate(988,1606)"/>
<path d="M0 0 C9.97 7.89 17.18 18.29 20.77 30.62 C22.44 45.25 21.91 59.83 13.12 72.19 C11.79 73.87 10.43 75.53 9.06 77.19 C8.3 78.26 7.54 79.33 6.75 80.44 C2.7 84.59 -1.9 87.35 -6.94 90.19 C-7.8 90.7 -8.66 91.21 -9.55 91.74 C-20.55 97.37 -35.91 97.15 -47.62 93.62 C-63.49 87.11 -73.78 76.2 -81.04 60.87 C-85.61 48.65 -84.06 32.88 -78.94 21.19 C-73.64 9.72 -63.47 -0.96 -51.66 -5.73 C-34.23 -11.89 -15.32 -10.54 0 0 Z " fill="#FBFDFA" transform="translate(853.9375,781.8125)"/>
<path d="M0 0 C7.86 6.2 12.97 14.13 17.5 22.97 C17.86 23.67 18.22 24.38 18.6 25.1 C23.16 35.97 21.66 52.22 17.31 62.88 C10.81 76.84 1.38 86.96 -12.94 92.97 C-23.81 96.54 -36.66 96.61 -47.5 92.97 C-48.35 92.7 -49.19 92.42 -50.06 92.14 C-64 86.96 -74.23 75.71 -80.7 62.54 C-85.33 51.14 -85.59 36.37 -81.44 24.78 C-78.81 19.03 -75.41 13.93 -71.5 8.97 C-71.2 8.56 -71.2 8.56 -69.68 6.48 C-67.17 3.59 -64.4 1.47 -61.25 -0.66 C-60.68 -1.05 -60.1 -1.44 -59.51 -1.85 C-41.98 -13.51 -17.01 -11.65 0 0 Z " fill="#FBFDFA" transform="translate(1256.50390625,782.03125)"/>
<path d="M0 0 C7.26 0 14.52 0 22 0 C22 53.46 22 106.92 22 162 C8.85 162.03 8.85 162.03 -57.69 162.19 C-61.84 162.2 -61.84 162.2 -82.86 162.27 C-93 162.28 -93 162.28 -97.74 162.29 C-101.05 162.29 -104.37 162.3 -107.69 162.32 C-111.92 162.34 -116.15 162.34 -120.38 162.34 C-121.93 162.34 -123.48 162.35 -125.03 162.36 C-127.13 162.37 -129.23 162.37 -131.32 162.36 C-132.5 162.36 -133.68 162.37 -134.89 162.37 C-140.18 161.74 -143.56 158.93 -147 155 C-148.1 151.7 -148.11 149.27 -148.1 145.8 C-148.09 144.59 -148.09 143.38 -148.09 142.14 C-148.08 140.88 -148.07 139.61 -148.06 138.31 C-148.06 137.68 -148.06 137.68 -148.05 134.45 C-148.04 131.3 -148.02 128.15 -148 125 C-146 128 -146 128 -145 130 C-137.51 132.57 -129.38 132.3 -121.56 132.32 C-120.26 132.33 -118.95 132.34 -117.6 132.35 C-114.04 132.38 -110.48 132.39 -106.93 132.4 C-103.2 132.42 -99.47 132.45 -95.74 132.47 C-88.69 132.52 -81.65 132.56 -74.6 132.59 C-66.57 132.63 -58.54 132.68 -50.51 132.73 C-34.01 132.83 -17.5 132.92 -1 133 C-1 132.66 -1 132.66 -1 130.94 C-1.02 114.43 -1.04 97.93 -1.05 81.42 C-1.06 73.44 -1.06 65.45 -1.08 57.47 C-1.09 50.52 -1.09 43.56 -1.09 36.61 C-1.1 32.92 -1.1 29.24 -1.11 25.55 C-1.11 21.44 -1.11 17.34 -1.11 13.23 C-1.12 12 -1.12 10.77 -1.12 9.5 C-1.12 8.39 -1.12 7.28 -1.12 6.13 C-1.12 5.65 -1.12 5.65 -1.12 3.18 C-1 1 -1 1 0 0 Z " fill="#B6BCC4" transform="translate(394,874)"/>
<path d="M0 0 C0.63 0 0.63 0 3.81 0 C5.13 0.02 6.45 0.04 7.81 0.06 C9.02 0.07 10.24 0.07 11.49 0.08 C16.03 0.1 20.57 0.15 25.1 0.2 C35.25 0.29 45.4 0.37 55.85 0.45 C55.85 26.19 55.85 51.93 55.85 78.45 C46.06 78.54 36.26 78.62 26.17 78.7 C24.62 78.72 24.62 78.72 16.81 78.81 C14.36 78.83 11.92 78.84 9.47 78.84 C8.2 78.87 6.93 78.89 5.62 78.91 C5.01 78.91 5.01 78.91 1.93 78.91 C1.4 78.91 1.4 78.91 -1.27 78.94 C-4.9 78.33 -6.55 77.02 -9.15 74.45 C-10.26 71.11 -10.29 68.55 -10.32 65.03 C-10.33 64.7 -10.33 64.7 -10.34 63.06 C-10.36 60.92 -10.37 58.79 -10.38 56.65 C-10.39 55.91 -10.39 55.18 -10.4 54.43 C-10.42 50.56 -10.43 46.69 -10.44 42.82 C-10.45 38.83 -10.49 34.83 -10.53 30.83 C-10.55 27.76 -10.56 24.69 -10.56 21.61 C-10.57 20.14 -10.58 18.67 -10.6 17.19 C-10.62 15.13 -10.62 13.07 -10.62 11.01 C-10.62 9.84 -10.63 8.67 -10.63 7.46 C-10.15 4.45 -10.15 4.45 -8.5 2.07 C-5.47 -0.01 -3.66 -0.03 0 0 Z " fill="#F1F3F4" transform="translate(177.1455078125,916.5458984375)"/>
<path d="M0 0 C4.82 1.97 8.42 5.72 12.25 9.13 C23.37 18.87 35.96 26.73 48.25 34.88 C49.95 36.01 51.65 37.14 53.36 38.27 C56.68 40.48 60 42.68 63.32 44.89 C66.3 46.87 69.27 48.85 72.24 50.84 C78.94 55.34 85.67 59.76 92.62 63.88 C93.46 64.37 94.3 64.87 95.17 65.39 C104.71 71.05 114.33 76.56 124 82 C125.14 82.64 126.27 83.28 127.45 83.94 C141.46 91.82 155.48 99.48 170.13 106.14 C174.14 107.99 178.06 110 182 112 C182 105.07 182 98.14 182 91 C191.34 95.58 200.56 100.33 209.69 105.31 C210.63 105.83 211.58 106.34 212.55 106.87 C217.53 109.61 217.53 109.61 220 111 C220.91 111.46 221.81 111.92 222.75 112.39 C225 114 225 114 225.69 116.04 C225.72 116.82 225.75 117.6 225.79 118.4 C225.84 119.28 225.89 120.17 225.95 121.07 C225.99 122.02 226.02 122.96 226.06 123.94 C226.75 134.89 228.61 145.31 231 156 C223.43 153.77 216.84 150.48 209.94 146.69 C208.8 146.07 207.66 145.45 206.48 144.81 C195.93 139.04 185.55 133 175.2 126.88 C171.8 124.88 168.38 122.91 164.96 120.94 C149.21 111.84 133.88 102.27 118.74 92.16 C116.27 90.51 113.78 88.87 111.3 87.24 C90.41 73.45 70.17 59.03 50.32 43.78 C48.33 42.25 46.34 40.73 44.34 39.22 C32.87 30.47 21.67 21.38 10.75 11.94 C10.13 11.4 9.51 10.87 8.87 10.31 C2.42 4.69 2.42 4.69 0 2 C0 1.34 0 0.68 0 0 Z " fill="#B6BDC5" transform="translate(197,1358)"/>
<path d="M0 0 C1.71 -0 3.41 -0.01 5.12 -0.01 C9.79 -0.02 14.46 -0.01 19.14 0 C24.23 0.01 29.32 0.01 34.41 0 C43.32 -0.01 52.23 -0 61.15 0.01 C74.4 0.03 87.66 0.03 100.91 0.03 C123.21 0.02 145.51 0.03 167.81 0.05 C189.89 0.07 211.96 0.08 234.04 0.08 C234.73 0.08 235.41 0.08 236.12 0.08 C242.39 0.09 248.65 0.09 254.92 0.09 C270.5 0.09 286.07 0.09 301.65 0.1 C302.36 0.1 303.07 0.1 303.8 0.1 C338.29 0.1 372.77 0.12 407.26 0.14 C419.22 0.15 431.19 0.16 443.15 0.16 C443.89 0.16 444.64 0.16 445.4 0.16 C479.91 0.18 514.42 0.19 548.93 0.2 C551.17 0.2 553.41 0.2 555.65 0.21 C570.5 0.21 585.35 0.21 600.2 0.22 C629.75 0.22 659.3 0.23 688.84 0.24 C690.25 0.24 691.66 0.24 693.07 0.24 C779.81 0.27 866.56 0.31 973.8 0.37 C973.8 0.7 973.8 1.03 973.8 1.37 C810.62 1.53 810.62 1.53 -15.2 2.37 C-16.19 6.33 -17.18 10.29 -18.2 14.37 C-19.38 17.82 -20.58 21.22 -21.89 24.62 C-22.21 25.47 -22.53 26.32 -22.86 27.2 C-23.63 29.26 -24.42 31.31 -25.2 33.37 C-24.7 33.7 -24.7 33.7 -22.2 35.37 C-22.48 35.41 -22.48 35.41 -23.87 35.64 C-36.22 37.7 -47.74 40.29 -59.2 45.37 C-59.81 45.64 -60.42 45.9 -61.05 46.18 C-77.58 53.55 -99.02 67.87 -106.2 85.37 C-108.71 77.84 -101.87 66.18 -98.45 59.24 C-84.92 32.82 -62.42 13.55 -34.11 4.25 C-22.65 0.79 -11.88 -0.06 0 0 Z " fill="#CBD0D6" transform="translate(546.19948387146,312.63085651397705)"/>
<path d="M0 0 C2.9 2.63 4.89 5.69 7.06 8.94 C13.66 18.62 20.79 27.66 30 35 C30.85 35.69 31.7 36.38 32.58 37.09 C39.66 42.81 39.66 42.81 42.02 44.13 C44.9 46.85 45.28 50 46 53.75 C46.08 54.14 46.08 54.14 46.49 56.1 C47.01 58.58 47.51 61.07 48 63.56 C48.33 65.18 48.67 66.8 49 68.41 C49.5 70.84 50 73.26 50.5 75.68 C51.66 81.41 52.88 87.12 54.14 92.82 C54.3 93.55 54.46 94.28 54.63 95.03 C57.28 106.94 61.4 115.88 68 126 C68.33 126.66 68.66 127.32 69 128 C64.43 127.45 61.14 125.49 57.38 123 C56.76 122.6 56.15 122.2 55.52 121.79 C30.09 104.87 10.95 78.75 4.86 48.52 C3.04 38.93 1.6 29.4 1.18 19.64 C1 17 1 17 0.48 15.06 C-0.21 12.11 -0.09 9.28 -0.06 6.25 C-0.05 5.08 -0.04 3.91 -0.04 2.7 C-0.02 1.81 -0.01 0.92 0 0 Z " fill="#CACFD6" transform="translate(432,1452)"/>
<path d="M0 0 C1.2 11.38 1.2 11.38 -1.25 14.7 C-3.43 16.04 -5.64 17 -8 18 C-10.45 19.23 -12.89 20.47 -15.31 21.75 C-15.96 22.09 -16.62 22.43 -17.29 22.79 C-39.94 34.95 -54.08 57.7 -62.18 81.45 C-64.19 88.13 -65.71 94.93 -67.19 101.75 C-67.35 102.52 -67.52 103.29 -67.69 104.08 C-75.2 140.2 -67.71 177.66 -55.74 211.87 C-54.8 214.57 -53.9 217.29 -53 220 C-54.32 220.33 -55.64 220.66 -57 221 C-73.41 192.46 -81.45 156.7 -81.38 124 C-81.37 123.14 -81.37 122.27 -81.37 121.38 C-81.34 108.23 -80.69 95.71 -77 83 C-76.79 82.24 -76.57 81.47 -76.35 80.68 C-70.42 60.02 -60.97 41.59 -46 26 C-45.23 25.17 -44.46 24.33 -43.66 23.47 C-32.4 11.64 -16.99 0 0 0 Z " fill="#BCC2C9" transform="translate(154,963)"/>
<path d="M0 0 C0.33 0 0.66 0 1 0 C0 37.22 -4.6 69.44 -29 99 C-29.73 99.9 -30.46 100.8 -31.22 101.72 C-36.72 108.17 -42.89 113.41 -50 118 C-50.66 118 -51.32 118 -52 118 C-52 117.34 -52 116.68 -52 116 C-51.34 116 -50.68 116 -50 116 C-49.32 114 -48.65 111.99 -47.99 109.98 C-47.28 107.85 -46.55 105.73 -45.81 103.62 C-42.25 93.25 -40.75 83.19 -39.75 72.31 C-39.59 70.71 -39.43 69.11 -39.27 67.51 C-38.06 55.46 -38.06 55.46 -37.84 50.12 C-37.48 41.65 -37.48 41.65 -34.92 38.18 C-34.02 37.61 -33.12 37.03 -32.19 36.44 C-19.41 27.33 -9.26 15.55 -1.25 2.06 C-1.05 1.72 -1.05 1.72 0 0 Z " fill="#CBD0D6" transform="translate(1616,1453)"/>
<path d="M0 0 C0.5 0.33 0.5 0.33 3 2 C5.71 2.28 5.71 2.28 9.03 2.32 C10.27 2.34 11.51 2.36 12.79 2.38 C14.15 2.39 15.5 2.4 16.86 2.41 C18.24 2.43 19.63 2.45 21.01 2.47 C24.66 2.52 28.3 2.56 31.95 2.6 C35.67 2.64 39.39 2.69 43.11 2.74 C50.4 2.84 57.7 2.92 65 3 C65.33 2.34 65.66 1.68 66 1 C66 10.9 66 20.8 66 31 C58.27 31.08 50.54 31.16 42.81 31.21 C39.21 31.23 35.61 31.26 32.01 31.3 C28.54 31.35 25.07 31.37 21.61 31.38 C19.64 31.39 17.68 31.42 15.71 31.45 C14.51 31.45 13.31 31.45 12.08 31.45 C11.55 31.46 11.55 31.46 8.88 31.48 C5.25 30.87 3.59 29.57 1 27 C-0.04 23.88 -0.11 21.73 -0.1 18.46 C-0.09 17.38 -0.09 16.31 -0.09 15.21 C-0.08 14.09 -0.07 12.97 -0.06 11.81 C-0.06 10.68 -0.05 9.55 -0.05 8.38 C-0.04 5.59 -0.02 2.79 0 0 Z " fill="#B8BEC6" transform="translate(167,964)"/>
<path d="M0 0 C4.51 -0.69 8.51 -0.92 13 0 C16.79 3.17 19.33 6.87 22 11 C22.57 11.74 23.15 12.47 23.74 13.23 C25 15 25 15 25 17 C20.71 17.66 16.42 18.32 12 19 C10 16.02 8 13.04 6 10.06 C5.43 9.21 4.86 8.36 4.27 7.49 C3.99 7.08 3.99 7.08 2.62 5.04 C2.12 4.29 1.62 3.54 1.1 2.77 C0 1 0 1 0 0 Z " fill="#C0C6CD" transform="translate(1441,1606)"/>
<path d="M0 0 C-1 1 -1 1 -3.29 1.1 C-4.2 1.09 -5.12 1.07 -6.06 1.06 C-6.98 1.05 -7.9 1.04 -8.85 1.04 C-9.56 1.02 -10.27 1.01 -11 1 C-11 1.66 -11 2.32 -11 3 C-9.02 3 -7.04 3 -5 3 C-4.34 4.32 -3.68 5.64 -3 7 C-3.61 6.78 -4.22 6.57 -4.85 6.34 C-15.42 3.13 -26.06 3.72 -37 4 C-35.68 3.34 -34.36 2.68 -33 2 C-33 1.34 -33 0.68 -33 0 C-28.62 -0.17 -24.24 -0.33 -19.87 -0.48 C-18.38 -0.54 -16.89 -0.59 -15.4 -0.65 C-13.26 -0.73 -11.12 -0.81 -8.98 -0.88 C-8.33 -0.9 -8.33 -0.9 -5.07 -1.02 C-2 -1 -2 -1 0 0 Z " fill="#4B5761" transform="translate(1250,770)"/>
<path d="M0 0 C0.66 0 1.32 0 2 0 C4.64 6.93 7.28 13.86 10 21 C9.34 21.33 9.34 21.33 6 23 C-2.22 8.59 -2.22 8.59 0 0 Z " fill="#C5CBD2" transform="translate(91,1161)"/>
<path d="M0 0 C0.66 0.33 1.32 0.66 2 1 C1.18 1.68 0.35 2.36 -0.5 3.06 C-1.67 4.04 -2.83 5.02 -4 6 C-4.59 6.5 -5.18 6.99 -5.79 7.5 C-11.85 12.69 -17.42 18.32 -23 24 C-23 19.05 -19.33 16.42 -16 13 C-10.99 8.18 -5.96 3.61 0 0 Z " fill="#10151B" transform="translate(506,405)"/>
</svg>
